<svg xmlns="http://www.w3.org/2000/svg" viewBox="0 0 140 140"><defs><style>.a{fill:#f5775b;}</style></defs><title>1a_baby</title><circle class="a" cx="47.84" cy="83.51" r="4.2"/><circle class="a" cx="91.97" cy="83.51" r="4.2"/><path class="a" d="M69.9,121.34c-13.32,0-23.2-1.91-30.21-5.84-7.79-4.37-12.25-11.34-13.27-20.72a13.39,13.39,0,0,1-.23-26.06v-1a43.7,43.7,0,0,1,87.4,0v1a13.39,13.39,0,0,1-.23,26.06c-1,9.38-5.48,16.34-13.27,20.72C93.11,119.43,83.22,121.34,69.9,121.34ZM59,32A37.58,37.58,0,0,0,32.58,67.7V90.51c0,9.21,3.35,15.57,10.24,19.44,6,3.38,14.88,5,27.09,5s21.06-1.64,27.09-5c6.89-3.87,10.24-10.23,10.24-19.44V67.7A37.5,37.5,0,0,0,74.3,30.64a22.69,22.69,0,0,1,2,1.68c4,3.83,6.41,9,6.41,13.79a14.12,14.12,0,0,1-14.1,14.1A11.93,11.93,0,0,1,56.67,48.29,10.18,10.18,0,0,1,66.84,38.11a3.19,3.19,0,0,1,0,6.37,3.8,3.8,0,0,0-3.8,3.8,5.55,5.55,0,0,0,5.55,5.55,7.74,7.74,0,0,0,7.73-7.73C76.32,40.3,70.31,32.21,59,32ZM113.6,88a7,7,0,0,0,0-12.49ZM26.2,75.48a7,7,0,0,0,0,12.5Z"/><path class="a" d="M69.9,98.4a17.22,17.22,0,0,1-12.26-5.07,3.19,3.19,0,0,1,4.51-4.51,11,11,0,0,0,15.5,0,3.19,3.19,0,1,1,4.51,4.51A17.22,17.22,0,0,1,69.9,98.4Z"/></svg>