<svg xmlns="http://www.w3.org/2000/svg" viewBox="0 0 140 140"><defs><style>.a{fill:#f5775b;}</style></defs><title>ic</title><path class="a" d="M70,114.65a15.67,15.67,0,0,1-12.11-6,3.25,3.25,0,0,1,5-4.08,8.76,8.76,0,0,0,14.13,0,3.25,3.25,0,0,1,5,4.08A15.68,15.68,0,0,1,70,114.65Z"/><path class="a" d="M50.82,90.54a3,3,0,0,1-3-3V82.72a3,3,0,0,1,6.1,0V87.5A3,3,0,0,1,50.82,90.54Z"/><path class="a" d="M89.18,90.54a3,3,0,0,1-3-3V82.72a3,3,0,0,1,6.1,0V87.5A3,3,0,0,1,89.18,90.54Z"/><path class="a" d="M70,138.55a56.66,56.66,0,0,1-19.59-4.33,63.34,63.34,0,0,1-8-4.75A46.19,46.19,0,0,1,23.72,95.69a.8.8,0,0,0-.57-.71A12.9,12.9,0,0,1,14,82.72,12.74,12.74,0,0,1,18.51,73a.8.8,0,0,0,.28-.61V49.26a36.8,36.8,0,0,1,36.82-36.7H94a17.58,17.58,0,0,1,17,13,.8.8,0,0,0,.33.46,22.27,22.27,0,0,1,9.92,18.46V72.42a.8.8,0,0,0,.28.61A12.74,12.74,0,0,1,126,82.72,12.9,12.9,0,0,1,116.85,95a.8.8,0,0,0-.57.71,46.21,46.21,0,0,1-18.73,33.79,51.27,51.27,0,0,1-7.95,4.73C86.34,135.63,77.26,138.55,70,138.55ZM26.84,76.4a6.37,6.37,0,0,0-2.87.69l-.09.05-.21.14a6.25,6.25,0,0,0-3.18,5.44A6.34,6.34,0,0,0,26.84,89a3.25,3.25,0,0,1,3.25,3.24,39.91,39.91,0,0,0,79.82,0A3.25,3.25,0,0,1,113.16,89a6.34,6.34,0,0,0,6.34-6.32,6.25,6.25,0,0,0-3.18-5.44,3.25,3.25,0,0,1-1.61-2.8v-30a15.88,15.88,0,0,0-8.17-13.77,3.23,3.23,0,0,1-1.61-2.31A11,11,0,0,0,94,19H55.61A30.31,30.31,0,0,0,25.29,49.26V69.14a.8.8,0,0,0,.25.58.81.81,0,0,0,.55.22h0l.7,0H32.5A1.55,1.55,0,0,0,34,68.68L37,54a8,8,0,0,1,3.7-5.26,8.1,8.1,0,0,1,4.19-1.16,8.21,8.21,0,0,1,2.29.33A84.74,84.74,0,0,0,70,50.8c10.57,0,20.6-1.65,27.52-4.53a3.24,3.24,0,1,1,2.5,6c-7.8,3.24-18.46,5-30,5a90.1,90.1,0,0,1-24.68-3.17,1.7,1.7,0,0,0-.48-.07,1.58,1.58,0,0,0-.81.22,1.47,1.47,0,0,0-.69,1L40.39,70A8.06,8.06,0,0,1,32.5,76.4Z"/></svg>