<svg xmlns="http://www.w3.org/2000/svg" viewBox="0 0 140 140"><defs><style>.a{fill:#f5775b;}</style></defs><title>ic</title><ellipse class="a" cx="47.9" cy="83.91" rx="4.21" ry="4.23"/><ellipse class="a" cx="92.1" cy="83.91" rx="4.21" ry="4.23"/><path class="a" d="M70,122c-13.35,0-23.25-1.92-30.26-5.88-7.8-4.4-12.27-11.42-13.29-20.86A13.49,13.49,0,0,1,26.22,69V68a43.78,43.78,0,1,1,87.56,0v1a13.49,13.49,0,0,1-.23,26.24c-1,9.44-5.49,16.45-13.29,20.86C93.25,120.08,83.35,122,70,122ZM59.11,32A37.82,37.82,0,0,0,32.61,68V91c0,9.27,3.35,15.67,10.26,19.57,6,3.41,14.91,5.06,27.14,5.06s21.1-1.66,27.14-5.06c6.9-3.89,10.26-10.29,10.26-19.57V68a37.68,37.68,0,0,0-33-37.31,22.76,22.76,0,0,1,2,1.69c4,3.85,6.42,9,6.42,13.88a14.18,14.18,0,0,1-14.13,14.2,12,12,0,0,1-11.94-12A10.23,10.23,0,0,1,66.93,38.21a3.21,3.21,0,0,1,0,6.42,3.82,3.82,0,0,0-3.81,3.83A5.58,5.58,0,0,0,68.68,54a7.77,7.77,0,0,0,7.74-7.78C76.43,40.41,70.41,32.26,59.11,32Zm54.67,56.36a7.07,7.07,0,0,0,0-12.58ZM26.22,75.83a7.07,7.07,0,0,0,0,12.58Z"/><path class="a" d="M70,98.91a17.21,17.21,0,0,1-12.28-5.1,3.2,3.2,0,1,1,4.52-4.54,11,11,0,0,0,15.53,0,3.2,3.2,0,0,1,4.52,4.54A17.21,17.21,0,0,1,70,98.91Z"/></svg>