<svg xmlns="http://www.w3.org/2000/svg" viewBox="0 0 140 140"><defs><style>.a{fill:#f5775b;}</style></defs><title>ic</title><path class="a" d="M79.9,98.42A2.87,2.87,0,0,0,78.7,104a16,16,0,0,1,7.7,3.75A22.75,22.75,0,0,1,55,107l-.1-.09A16.75,16.75,0,0,1,61.62,104a2.87,2.87,0,0,0-1.2-5.61c-12.83,2.75-16.32,12.88-16.36,17.85a2.87,2.87,0,0,0,2.84,2.91h0a2.86,2.86,0,0,0,2.86-2.83,12.52,12.52,0,0,1,1.42-5,28.42,28.42,0,0,0,38.46,1.21,12,12,0,0,1,.87,3.81,2.87,2.87,0,0,0,2.86,2.82h0a2.87,2.87,0,0,0,2.84-2.9C96.21,111.29,92.73,101.16,79.9,98.42Z"/><path class="a" d="M53.58,64.69c-1.58,0-2.86,1-2.86,2.19v6.43c0,1.21,1.28,2.19,2.86,2.19s2.86-1,2.86-2.19V66.87C56.45,65.67,55.17,64.69,53.58,64.69Z"/><path class="a" d="M69.26,87.71H64.18l2.71-11.28a2.86,2.86,0,0,0-5.45-1.71c-2,5.28-8.73,8.64-18.84,9.47a6,6,0,0,0-1,.13,2.87,2.87,0,0,0,1.16,5.61l.34,0c6.36-.52,11.67-2,15.73-4.32l-1,4.32a2.87,2.87,0,0,0,2.78,3.54h8.72a2.87,2.87,0,0,0,0-5.74Zm-26.5,2.22.19,0Z"/><path class="a" d="M87.14,64.69c-1.58,0-2.86,1-2.86,2.19v6.43c0,1.21,1.28,2.19,2.86,2.19s2.86-1,2.86-2.19V66.87C90,65.67,88.72,64.69,87.14,64.69Z"/><path class="a" d="M99.17,84.32a6.11,6.11,0,0,0-1-.13C88,83.36,81.34,80,79.29,74.73A2.86,2.86,0,1,0,74,76.8c2.88,7.43,11.3,12.09,23.71,13.11l.34,0a2.87,2.87,0,0,0,1.16-5.61Zm-1.39,5.57.19,0Z"/><path class="a" d="M65.07,53.05c-11-7.15-20.63-2.45-24.18,1a2.87,2.87,0,0,0,2,4.93,2.84,2.84,0,0,0,2-.82c.29-.28,7.23-6.71,17.07-.33a2.87,2.87,0,0,0,3.11-4.81Z"/><path class="a" d="M98.67,53.05c-11-7.15-20.63-2.45-24.18,1a2.87,2.87,0,0,0,2,4.93,2.84,2.84,0,0,0,2-.82c.29-.28,7.23-6.71,17.07-.33a2.87,2.87,0,0,0,3.11-4.81Z"/><path class="a" d="M118.4,103.25a21,21,0,0,0,2-41.81A50.07,50.07,0,0,0,97.29,22.53a26.81,26.81,0,0,0-48.71-9.4,2.87,2.87,0,1,0,4.79,3.15A21.09,21.09,0,0,1,90,18.69a49.62,49.62,0,0,0-19.5-4,49,49,0,0,0-16.08,2.69,2.87,2.87,0,0,0,1.87,5.42,43.33,43.33,0,0,1,14.21-2.37,44.31,44.31,0,0,1,44.22,44.29V89a44.18,44.18,0,0,1-76.06,30.7A39.61,39.61,0,0,1,27.34,90.49s0-.08,0-.12V66.14s0-.07,0-.11a44,44,0,0,1,8.17-27.7A2.87,2.87,0,1,0,30.87,35a49.34,49.34,0,0,0-9.21,26.46A21,21,0,0,0,23,103.24a46.52,46.52,0,0,0,11.55,20.41A49.93,49.93,0,0,0,56.9,137.08l5.73,1.28a49.36,49.36,0,0,0,7.9.64,50,50,0,0,0,8.92-.8l5.73-1.4A50.2,50.2,0,0,0,118.4,103.25ZM120.48,89V67.25a15.24,15.24,0,0,1-.72,30.18A50.21,50.21,0,0,0,120.48,89ZM8.73,82.29A15.25,15.25,0,0,1,21.62,67.23V90.31a44,44,0,0,0,.28,7.07A15.25,15.25,0,0,1,8.73,82.29Z"/></svg>