<svg xmlns="http://www.w3.org/2000/svg" viewBox="0 0 182 160"><defs><style>.a{fill:#e5e5e5;}</style></defs><title>ic</title><path class="a" d="M43.22,137.81a2.53,2.53,0,0,1-2.52-2.53V107a2.53,2.53,0,0,1,2.52-2.53H71.34A2.53,2.53,0,0,1,73.86,107v28.24a2.53,2.53,0,0,1-2.52,2.53ZM60.8,123.69a1,1,0,0,0-1,1v7.06a1,1,0,0,0,1,1h7a1,1,0,0,0,1-1v-7.06a1,1,0,0,0-1-1Zm-14.06,0a1,1,0,0,0-1,1v7.06a1,1,0,0,0,1,1h7a1,1,0,0,0,1-1v-7.06a1,1,0,0,0-1-1ZM60.8,109.57a1,1,0,0,0-1,1v7.06a1,1,0,0,0,1,1h7a1,1,0,0,0,1-1v-7.06a1,1,0,0,0-1-1Zm-14.06,0a1,1,0,0,0-1,1v7.06a1,1,0,0,0,1,1h7a1,1,0,0,0,1-1v-7.06a1,1,0,0,0-1-1Z"/><path class="a" d="M177.48,68H57.28l-.42,0-.11,0-.32.06-.1,0-.37.13h0a3.49,3.49,0,0,0-.39.19h0L2.76,99.06a3.53,3.53,0,0,0,3.52,6.11l2.16-1.26v50.56A3.52,3.52,0,0,0,12,158H170a3.52,3.52,0,0,0,3.52-3.53V105.64h3.92a3.52,3.52,0,0,0,3.52-3.53V71.53A3.52,3.52,0,0,0,177.48,68Zm-38.67,7.06h14.06V98.58H138.81Zm-21.09,0h14.06V98.58H117.72Zm-21.09,0h14.06V98.41L96.63,90.26Zm-7,0V86.19L70.4,75.06Zm9.49,75.88H15.47V99.84L57.28,75.6,99.09,99.84Zm67.44,0H106.12V144h60.41Zm0-14H106.12v-33l2.16,1.25h0a3.5,3.5,0,0,0,.39.19l0,0,.34.12.13,0,.28.06.14,0,.35,0h56.54v6.7H152.11a3.53,3.53,0,0,0,0,7.06h14.43ZM174,98.58H159.91V75.06H174Z"/><path class="a" d="M142,112.34h-.08a3.53,3.53,0,0,0,0,7.06H142a3.53,3.53,0,0,0,0-7.06Z"/></svg>