<svg xmlns="http://www.w3.org/2000/svg" viewBox="0 0 182 160"><defs><style>.a{fill:#e5e5e5;}</style></defs><title>ic</title><path class="a" d="M43.22,137.87a2.52,2.52,0,0,1-2.52-2.52V107.19a2.52,2.52,0,0,1,2.52-2.52H71.34a2.52,2.52,0,0,1,2.52,2.52v28.15a2.52,2.52,0,0,1-2.52,2.52ZM60.8,123.79a1,1,0,0,0-1,1v7a1,1,0,0,0,1,1h7a1,1,0,0,0,1-1v-7a1,1,0,0,0-1-1Zm-14.06,0a1,1,0,0,0-1,1v7a1,1,0,0,0,1,1h7a1,1,0,0,0,1-1v-7a1,1,0,0,0-1-1ZM60.8,109.71a1,1,0,0,0-1,1v7a1,1,0,0,0,1,1h7a1,1,0,0,0,1-1v-7a1,1,0,0,0-1-1Zm-14.06,0a1,1,0,0,0-1,1v7a1,1,0,0,0,1,1h7a1,1,0,0,0,1-1v-7a1,1,0,0,0-1-1Z"/><path class="a" d="M177.48,68.26H128.24V36.81l2.16,1.25a3.52,3.52,0,0,0,3.52-6.1L81.15,1.47a3.51,3.51,0,0,0-3.52,0L24.87,32a3.52,3.52,0,1,0,3.52,6.1l2.17-1.25V83.16L2.76,99.22a3.52,3.52,0,0,0,3.52,6.1l2.16-1.25v50.41A3.52,3.52,0,0,0,12,158H170a3.52,3.52,0,0,0,3.52-3.52V105.79h3.92a3.52,3.52,0,0,0,3.52-3.52V71.78A3.52,3.52,0,0,0,177.48,68.26Zm-38.67,7h14.06V98.75H138.81Zm-7,0V98.75H117.72V75.3h14.06ZM37.59,59.24H48.5a3.52,3.52,0,0,0,0-7H37.59V32.75L79.39,8.58l41.81,24.16V68.26H57.28l-.42,0-.11,0-.32.06-.1,0-.37.13h0a3.49,3.49,0,0,0-.39.19h0L37.59,79.1Zm52,16.06V86.39L70.4,75.3H89.6ZM99.09,151H15.47V100L57.28,75.84,99.09,100ZM96.63,90.46V75.3h14.06V98.58ZM166.53,151H106.12V144h60.41Zm0-14H106.12V104.07l2.16,1.25h0a3.51,3.51,0,0,0,.39.19l0,0,.34.12.13,0,.28.06.14,0,.35,0h56.54v6.68H152.11a3.52,3.52,0,0,0,0,7h14.43ZM174,98.75H159.91V75.3H174Z"/><path class="a" d="M71.49,58.24A2.52,2.52,0,0,1,69,55.72V35.38a2.52,2.52,0,0,1,2.52-2.52H87.31a2.52,2.52,0,0,1,2.52,2.52V55.72a2.52,2.52,0,0,1-2.52,2.52ZM75,37.9a1,1,0,0,0-1,1V52.2a1,1,0,0,0,1,1h8.79a1,1,0,0,0,1-1V38.9a1,1,0,0,0-1-1Z"/><path class="a" d="M142,112.47h-.08a3.52,3.52,0,0,0,0,7H142a3.52,3.52,0,0,0,0-7Z"/><path class="a" d="M58.6,59.24h.08a3.52,3.52,0,0,0,0-7H58.6a3.52,3.52,0,0,0,0,7Z"/></svg>