<svg xmlns="http://www.w3.org/2000/svg" viewBox="0 0 220 220"><defs><style>.a{fill:#e5e5e5;}</style></defs><title>ic</title><path class="a" d="M64.22,72a2.46,2.46,0,0,0-3.47.36,4.83,4.83,0,0,1-7.84,0,2.47,2.47,0,1,0-3.83,3.11,9.75,9.75,0,0,0,15.5,0A2.47,2.47,0,0,0,64.22,72Z"/><path class="a" d="M45.16,56.86a2.47,2.47,0,0,0-2.47,2.47v2.92a2.47,2.47,0,1,0,4.93,0V59.33A2.47,2.47,0,0,0,45.16,56.86Z"/><path class="a" d="M68.5,56.86A2.47,2.47,0,0,0,66,59.33v2.92a2.47,2.47,0,1,0,4.93,0V59.33A2.47,2.47,0,0,0,68.5,56.86Z"/><path class="a" d="M32.78,125.35l-5.84-11.67a2.47,2.47,0,1,0-4.41,2.21L28.11,127v46.11a2.47,2.47,0,1,0,4.93,0v-46.7A2.46,2.46,0,0,0,32.78,125.35Z"/><path class="a" d="M90,112.57a2.46,2.46,0,0,0-3.31,1.1l-5.84,11.67a2.47,2.47,0,0,0-.26,1.1v46.7a2.47,2.47,0,1,0,4.93,0V127l5.57-11.15A2.47,2.47,0,0,0,90,112.57Z"/><path class="a" d="M143,86.59a2.46,2.46,0,0,0-3.47.36,4.83,4.83,0,0,1-7.84,0,2.47,2.47,0,1,0-3.83,3.11,9.75,9.75,0,0,0,15.5,0A2.47,2.47,0,0,0,143,86.59Z"/><path class="a" d="M123.94,71.45a2.47,2.47,0,0,0-2.47,2.47v2.92a2.47,2.47,0,1,0,4.93,0V73.92A2.47,2.47,0,0,0,123.94,71.45Z"/><path class="a" d="M147.28,71.45a2.47,2.47,0,0,0-2.47,2.47v2.92a2.47,2.47,0,1,0,4.93,0V73.92A2.47,2.47,0,0,0,147.28,71.45Z"/><path class="a" d="M95.07,101.79l-16-4.8-2.67-4a2.46,2.46,0,0,0-2.5-1.06V88.26a28.72,28.72,0,0,0,11.59-21,8.28,8.28,0,0,0,3-14.24V36A14.13,14.13,0,0,0,82.22,24.3,11.14,11.14,0,0,0,71.42,16H48.08A22.92,22.92,0,0,0,25.19,38.9V53a8.28,8.28,0,0,0,3,14.24,28.72,28.72,0,0,0,11.59,21v3.66A2.46,2.46,0,0,0,37.28,93l-2.67,4-16,4.8a11.15,11.15,0,0,0-8,10.75v60.61a2.47,2.47,0,1,0,4.93,0V112.54a6.25,6.25,0,0,1,4.48-6l11-3.31a2.46,2.46,0,0,0,.54,1.44L41.47,117a5.36,5.36,0,0,0,7.43.94l5.46-4.1v59.27a2.47,2.47,0,1,0,4.93,0V113.87l5.46,4.1a5.36,5.36,0,0,0,7.43-.94l9.9-12.38a2.46,2.46,0,0,0,.54-1.44l11,3.31a6.25,6.25,0,0,1,4.48,6,2.47,2.47,0,1,0,4.93,0A11.15,11.15,0,0,0,95.07,101.79ZM33,65.16a2.47,2.47,0,0,0-2.47-2.47,3.37,3.37,0,0,1-3.37-3.37,3.33,3.33,0,0,1,1.69-2.9l.16-.1A3.36,3.36,0,0,1,30.57,56H34a5.4,5.4,0,0,0,5.28-4.33l1.79-9a.41.41,0,0,1,.19-.28.48.48,0,0,1,.4,0,55.12,55.12,0,0,0,15.15,2c7.1,0,13.65-1.1,18.46-3.11a2.47,2.47,0,0,0-1.9-4.55c-4.15,1.73-10.19,2.73-16.56,2.73a50.89,50.89,0,0,1-13.77-1.76,5.44,5.44,0,0,0-4.33.56,5.37,5.37,0,0,0-2.47,3.54l-1.79,9A.45.45,0,0,1,34,51H30.12V38.9a18,18,0,0,1,18-18H71.42a6.24,6.24,0,0,1,6.18,5.3A2.47,2.47,0,0,0,78.82,28a9.21,9.21,0,0,1,4.72,8V54.3a2.47,2.47,0,0,0,1.23,2.13,3.33,3.33,0,0,1,1.69,2.9,3.37,3.37,0,0,1-3.37,3.37,2.47,2.47,0,0,0-2.47,2.47,23.79,23.79,0,1,1-47.58,0ZM45.95,114a.45.45,0,0,1-.62-.08l-8.78-11,3.31-5,13,10.84Zm10.89-8.3L44.71,95.62V91.2A28.65,28.65,0,0,0,69,91.2v4.42Zm11.51,8.22a.45.45,0,0,1-.62.08l-6.91-5.19L73.81,98l3.31,5Z"/><path class="a" d="M48.11,132.74h0a2.45,2.45,0,0,0-2.45,2.47,2.47,2.47,0,1,0,2.48-2.47Z"/><path class="a" d="M48.11,156.09h0a2.45,2.45,0,0,0-2.45,2.47,2.47,2.47,0,1,0,2.48-2.47Z"/><path class="a" d="M48.11,144.41h0a2.45,2.45,0,0,0-2.45,2.47,2.47,2.47,0,1,0,2.48-2.47Z"/><path class="a" d="M151.86,114a3.35,3.35,0,0,1-2.12-3.13v-6.05h0a28.47,28.47,0,0,0,3.9-2.65,28.67,28.67,0,0,0,10.68-22.36c0-14.37-10.4-16.43-20.46-18.43-6.43-1.28-13.07-2.6-18.37-6.83a2.39,2.39,0,0,0-.72-.42,2.48,2.48,0,0,0-3,1.22A28.92,28.92,0,0,1,118,60.7c-2,2.24-5.09,4.92-8.65,4.92a8.24,8.24,0,0,0-3.35.71h0V62.63c0-16.32,13-29.87,29.35-30a29.67,29.67,0,0,1,29.91,29.64V68a2.54,2.54,0,0,0,2.4,2.58,2.47,2.47,0,0,0,2.53-2.47V62.24A34.59,34.59,0,0,0,152.5,32.1h0a12,12,0,0,0,.16-1.94c0-7.8-7.65-14.14-17.05-14.14s-17.05,6.34-17.05,14.14a11.91,11.91,0,0,0,.16,1.95h0A34.59,34.59,0,0,0,101,62.24V73.92a8.32,8.32,0,0,0,5.9,8h0a28.68,28.68,0,0,0,14.5,22.88h0v6.05a3.35,3.35,0,0,1-2.12,3.13l-20,8a11.17,11.17,0,0,0-7.05,10.42v14.47a2.45,2.45,0,0,0,2.47,2.5h.45V173a2.54,2.54,0,0,0,2.4,2.58,2.47,2.47,0,0,0,2.53-2.47V149.36h.62a2.47,2.47,0,0,0,2.47-2.47h0a2.47,2.47,0,0,0-2.47-2.47H97.23v-12a6.3,6.3,0,0,1,4-5.85l15.54-6.22h0a47.45,47.45,0,0,0,3.26,4.79,2.5,2.5,0,0,0,3.46.48h0a2.45,2.45,0,0,0,.49-3.47,44.7,44.7,0,0,1-2.56-3.67,0,0,0,0,1,0,0,8.26,8.26,0,0,0,5-7.62V107h0a28.54,28.54,0,0,0,18.38,0h0v3.85a8.26,8.26,0,0,0,5,7.62,0,0,0,0,1,0,0,44.72,44.72,0,0,1-2.59,3.71,2.44,2.44,0,0,0,.45,3.43h0a2.5,2.5,0,0,0,3.5-.45,47.46,47.46,0,0,0,3.29-4.83h0l3.88,1.55a2.46,2.46,0,0,0,3.19-1.34h0a2.47,2.47,0,0,0-1.36-3.24Zm-16.25-93c6.56,0,11.91,4,12.11,8.92h0a34.54,34.54,0,0,0-24.19,0h0C123.7,24.91,129.05,20.93,135.61,20.93Zm0,82.62a23.52,23.52,0,0,1-14.94-5.28,23.73,23.73,0,0,1-8.85-18.55,2.45,2.45,0,0,0-2.48-2.44A3.37,3.37,0,0,1,106,73.7a3.42,3.42,0,0,1,3.4-3.16c7.45,0,12.86-6.77,15.3-10.55h0c5.75,3.7,12.32,5,18.2,6.17,10.84,2.15,16.49,3.73,16.49,13.59a23.73,23.73,0,0,1-8.85,18.52A23.52,23.52,0,0,1,135.61,103.56Z"/><path class="a" d="M175.16,151.19a1.71,1.71,0,0,0-1.71,1.71v2.32a1.71,1.71,0,1,0,3.42,0V152.9A1.71,1.71,0,0,0,175.16,151.19Z"/><path class="a" d="M196.87,146.09a6.39,6.39,0,0,0-9,0,1.71,1.71,0,0,0,2.42,2.42,3,3,0,0,1,4.2,0,1.71,1.71,0,0,0,2.42-2.42Z"/><path class="a" d="M179.68,146.09a6.39,6.39,0,0,0-9,0,1.71,1.71,0,1,0,2.42,2.42,3,3,0,0,1,4.2,0,1.71,1.71,0,0,0,2.42-2.42Z"/><path class="a" d="M192.35,151.19a1.71,1.71,0,0,0-1.71,1.71v2.32a1.71,1.71,0,1,0,3.42,0V152.9A1.71,1.71,0,0,0,192.35,151.19Z"/><path class="a" d="M188.72,164.38a1.71,1.71,0,0,0-2.42,0,3.6,3.6,0,0,1-5.09,0,1.71,1.71,0,0,0-2.42,2.42,7,7,0,0,0,9.92,0A1.71,1.71,0,0,0,188.72,164.38Z"/><path class="a" d="M185.2,151.38a1.71,1.71,0,0,0-1.71,1.71v4.08h-1.19a1.71,1.71,0,0,0,0,3.42h2.9a1.71,1.71,0,0,0,1.71-1.71v-5.79A1.71,1.71,0,0,0,185.2,151.38Z"/><path class="a" d="M143,156.65a6.13,6.13,0,0,0-8.67,0,1.71,1.71,0,0,0,2.42,2.42,2.72,2.72,0,0,1,3.84,0,1.71,1.71,0,0,0,2.42-2.42Z"/><path class="a" d="M126.76,156.65a6.13,6.13,0,0,0-8.67,0,1.71,1.71,0,0,0,2.42,2.42,2.72,2.72,0,0,1,3.84,0,1.71,1.71,0,0,0,2.42-2.42Z"/><path class="a" d="M135.3,167.85a1.71,1.71,0,0,0-2.42,0,3.31,3.31,0,0,1-4.68,0,1.71,1.71,0,0,0-2.42,2.42,6.72,6.72,0,0,0,9.51,0A1.71,1.71,0,0,0,135.3,167.85Z"/><path class="a" d="M131.7,160.4h-2.31a1.71,1.71,0,0,0,0,3.42h2.31a1.71,1.71,0,0,0,0-3.42Z"/><path class="a" d="M111.45,197.72a1.71,1.71,0,0,0-1.88-1.7,1.76,1.76,0,0,0-1.54,1.77v6.5a1.71,1.71,0,0,0,1.71,1.71h0a1.71,1.71,0,0,0,1.71-1.71v-6.57Z"/><path class="a" d="M119.51,190.42a1.71,1.71,0,0,0-1.88-1.7,1.76,1.76,0,0,0-1.54,1.77v13.8A1.71,1.71,0,0,0,117.8,206h0a1.71,1.71,0,0,0,1.71-1.71V190.42Z"/><path class="a" d="M157.37,153.17a6,6,0,0,0-3.19-5.28l2.15-2.95a5,5,0,0,0,.64-4.79,4.81,4.81,0,0,0-3.8-3,1.78,1.78,0,0,0-2,1.39,1.71,1.71,0,0,0,1.5,2,1.44,1.44,0,0,1,1,2.28l-3.7,5.08a1.44,1.44,0,0,1-2.48-.26l-2.61-5.89a5.6,5.6,0,0,0,1.38-1.89l1.74.19h.18a1.71,1.71,0,0,0,1.71-1.76,1.75,1.75,0,0,0-1.59-1.65l-1.68-.18a5.57,5.57,0,0,0-6-4.4l-2.61-5.89a4.86,4.86,0,0,0-8.36-.89l-3.62,5a5,5,0,0,0-.6,4.91,4.81,4.81,0,0,0,3.94,2.89l6.4.68a5.53,5.53,0,0,0,.43,1.26c-4.34,4.25-11.69,8.42-22.9,5.91a18.2,18.2,0,0,1,10.2-11.28,1.76,1.76,0,0,0,1-2.09,1.71,1.71,0,0,0-2.3-1.08,21.62,21.62,0,0,0-12.78,15.75A6,6,0,0,0,108,158.91a17.24,17.24,0,0,0,7.05,14.94l1.35,1A14.19,14.19,0,0,0,108,187.76v3.63a1.76,1.76,0,0,0,1.54,1.77,1.71,1.71,0,0,0,1.88-1.7v-3.71a10.76,10.76,0,0,1,6-9.64,13.31,13.31,0,0,0,25.34,2.93,1.75,1.75,0,0,0-.75-2.24,1.71,1.71,0,0,0-2.37.84,9.89,9.89,0,0,1-18.74-1.57l1.94,1.41a13,13,0,0,0,15.37,0l3-2.22a10.75,10.75,0,0,1,8.36,10.47v16.53a1.71,1.71,0,0,0,1.71,1.71h0a1.71,1.71,0,0,0,1.71-1.71V187.76a14.19,14.19,0,0,0-8.39-12.93l1.35-1a17.24,17.24,0,0,0,7.05-14.94A6,6,0,0,0,157.37,153.17Zm-49,2.2a2.55,2.55,0,0,1,.51-4.63Zm32.75-19.91a2.15,2.15,0,1,1-2.15,2.15A2.15,2.15,0,0,1,141.14,135.46Zm-5.09-.11-6.4-.68a1.44,1.44,0,0,1-1-2.28l3.7-5.08a1.44,1.44,0,0,1,2.48.26l2.61,5.89A5.59,5.59,0,0,0,136.05,135.35Zm8,35.73-7.78,5.66a9.63,9.63,0,0,1-11.36,0l-7.78-5.66a13.81,13.81,0,0,1-5.6-12.66l1-9.06v-.1a33.59,33.59,0,0,0,7.34.86,25.78,25.78,0,0,0,15.21-4.77,18.34,18.34,0,0,0,5,4.23,1.71,1.71,0,1,0,1.7-3,15,15,0,0,1-4-3.42l.75-.71a5.53,5.53,0,0,0,2.68.69,5.62,5.62,0,0,0,.59,0l2.61,5.88a4.81,4.81,0,0,0,3.92,2.86l.53,0h.09l.72,6.5A13.81,13.81,0,0,1,144,171.09Zm8.7-15.71-.51-4.63a2.55,2.55,0,0,1,.51,4.63Z"/><path class="a" d="M145,190.42a1.71,1.71,0,0,0-1.88-1.7,1.76,1.76,0,0,0-1.54,1.77v13.8a1.71,1.71,0,0,0,1.71,1.71h0a1.71,1.71,0,0,0,1.71-1.71V190.42Z"/><path class="a" d="M197.23,206a1.71,1.71,0,0,0,1.71-1.71v-7.75h5.11v7.75a1.71,1.71,0,0,0,1.71,1.71h0a1.71,1.71,0,0,0,1.71-1.71V183.91a14.81,14.81,0,0,0-2.42-8.13,1.76,1.76,0,0,0-2.28-.63,1.71,1.71,0,0,0-.61,2.45,11.41,11.41,0,0,1,1.89,6.31v9.21h-5.11v-6.33A1.76,1.76,0,0,0,197.4,185a1.71,1.71,0,0,0-1.88,1.7v17.57a1.71,1.71,0,0,0,1.71,1.71Z"/><path class="a" d="M200.94,121.78a1.71,1.71,0,0,0-2.46.64,1.75,1.75,0,0,0,.62,2.24,19.56,19.56,0,0,1,8.66,12.51,24.24,24.24,0,0,0-2.66-1.75,17.17,17.17,0,0,0-15.35-1.3c-7,2.83-10.46,1.28-12.45-.14a12.72,12.72,0,0,1-1.59-1.35,1.77,1.77,0,0,0-2.34-.18,1.71,1.71,0,0,0-.13,2.54c.3.3.61.58.91.85-1.8,2.5-6,3.61-8.49,4-.94-1.85-2.76-6.14-1.29-9.44,3.21-7.23,13.13-9.8,20.64-9.8a26.55,26.55,0,0,1,10.33,2.08,1.71,1.71,0,0,0,2.3-1.05,1.76,1.76,0,0,0-1-2.13A30,30,0,0,0,185,117.14c-13.64,0-21.22,6.11-23.76,11.83-2.28,5.13.71,11.22,1.72,13l-.14,1.43a6.21,6.21,0,0,0-1.16,12.06,16.39,16.39,0,0,0,6.66,14.65l.36.26a14.91,14.91,0,0,0-8.63,13.5v20.38a1.71,1.71,0,0,0,1.71,1.71h0a1.71,1.71,0,0,0,1.71-1.71v-7.75h5.11v7.75a1.71,1.71,0,0,0,1.71,1.71h0a1.71,1.71,0,0,0,1.71-1.71v-17.5a1.76,1.76,0,0,0-1.54-1.77,1.71,1.71,0,0,0-1.88,1.7v6.4h-5.11v-9.21A11.48,11.48,0,0,1,170,173.57a14,14,0,0,0,1.5,4.38,1.71,1.71,0,0,0,2.52.55,1.76,1.76,0,0,0,.45-2.25,10.48,10.48,0,0,1-.9-2.32l2.7,2a12.75,12.75,0,0,0,15,0l2.71-2a10.58,10.58,0,0,1-10.23,7.91,10.44,10.44,0,0,1-6.52-2.25,1.77,1.77,0,0,0-2.34.08,1.71,1.71,0,0,0,.15,2.54,14,14,0,0,0,22.5-8.64,11.48,11.48,0,0,1,1.46.84,1.71,1.71,0,0,0,2.43-.55,1.75,1.75,0,0,0-.57-2.32,14.88,14.88,0,0,0-2-1.14l.36-.26a16.39,16.39,0,0,0,6.66-14.65,6.21,6.21,0,0,0-1.16-12.06l-.18-1.91a1.76,1.76,0,0,0-1.7-1.62,1.71,1.71,0,0,0-1.7,1.87l1.34,13.92a13,13,0,0,1-5.26,11.68l-7.92,5.76a9.34,9.34,0,0,1-11,0l-7.92-5.76a13,13,0,0,1-5.26-11.68l1.21-12.55c2.62-.4,8.06-1.65,10.69-5.39,3.85,2,8.47,1.8,14.07-.47a13.66,13.66,0,0,1,12.29,1.05,21.1,21.1,0,0,1,5.26,4.19,1.71,1.71,0,0,0,2.11.41,1.76,1.76,0,0,0,.91-1.57A22.89,22.89,0,0,0,200.94,121.78ZM162,151.88a2.8,2.8,0,0,1,.47-4.84Zm44.69-2.29a2.79,2.79,0,0,1-1.18,2.29L205,147A2.8,2.8,0,0,1,206.69,149.59Z"/></svg>