<svg xmlns="http://www.w3.org/2000/svg" viewBox="0 0 220 220"><defs><style>.a{fill:#e5e5e5;}.b{fill:none;}</style></defs><title>ic</title><path class="a" d="M117.35,72.14a2.44,2.44,0,0,0-3.45.36,4.79,4.79,0,0,1-7.8,0,2.44,2.44,0,0,0-3.45-.36,2.49,2.49,0,0,0-.36,3.48,9.66,9.66,0,0,0,15.42,0A2.49,2.49,0,0,0,117.35,72.14Z"/><path class="a" d="M98.39,57a2.46,2.46,0,0,0-2.45,2.47v2.93a2.45,2.45,0,1,0,4.91,0V59.43A2.46,2.46,0,0,0,98.39,57Z"/><path class="a" d="M121.61,57a2.46,2.46,0,0,0-2.45,2.47v2.93a2.45,2.45,0,1,0,4.91,0V59.43A2.46,2.46,0,0,0,121.61,57Z"/><path class="b" d="M110,89.14a23.79,23.79,0,0,0,23.67-23.86,2.46,2.46,0,0,1,2.45-2.47,3.37,3.37,0,0,0,1.67-6.28,2.48,2.48,0,0,1-1.22-2.14V36a9.24,9.24,0,0,0-4.7-8,2.47,2.47,0,0,1-1.22-1.77,6.22,6.22,0,0,0-6.15-5.31H101.29A18,18,0,0,0,83.42,39V51.12h4.16A.45.45,0,0,0,88,50.8L90.25,44a2.45,2.45,0,0,1,2.33-1.69c.23,0,22.79-.07,33.74-5.59a2.44,2.44,0,0,1,3.29,1.11,2.48,2.48,0,0,1-1.1,3.32c-10.21,5.15-28.39,6-34.16,6.09l-1.69,5.11a5.35,5.35,0,0,1-5.08,3.69H83.87a3.33,3.33,0,0,0-1.51.37l-.16.11a3.37,3.37,0,0,0,1.67,6.28,2.46,2.46,0,0,1,2.45,2.47A23.79,23.79,0,0,0,110,89.14Z"/><path class="b" d="M122.06,91.39a28.32,28.32,0,0,1-24.12,0v6.11A12.12,12.12,0,0,0,110,109.62h0a12.12,12.12,0,0,0,12.06-12.12V95.62h0Z"/><path class="b" d="M136.13,62.81a3.37,3.37,0,0,0,1.67-6.28,2.48,2.48,0,0,1-1.22-2.14V36a9.24,9.24,0,0,0-4.7-8,2.47,2.47,0,0,1-1.22-1.77,6.22,6.22,0,0,0-6.15-5.31H101.29A18,18,0,0,0,83.42,39V51.12h4.16A.45.45,0,0,0,88,50.8L90.25,44a2.45,2.45,0,0,1,2.33-1.69c.23,0,22.79-.07,33.74-5.59a2.44,2.44,0,0,1,3.29,1.11,2.48,2.48,0,0,1-1.1,3.32c-10.21,5.15-28.39,6-34.16,6.09l-1.69,5.11a5.35,5.35,0,0,1-5.08,3.69H83.87a3.32,3.32,0,0,0-1.51.37l-.16.11a3.37,3.37,0,0,0,1.67,6.28,2.46,2.46,0,0,1,2.45,2.47,23.68,23.68,0,1,0,47.35,0A2.46,2.46,0,0,1,136.13,62.81Z"/><path class="a" d="M148,102,127,95.62V88.44a28.85,28.85,0,0,0,11.54-21,8.33,8.33,0,0,0,3-14.28V36a14.19,14.19,0,0,0-6.22-11.7A11.1,11.1,0,0,0,124.52,16H101.29A22.89,22.89,0,0,0,78.52,39V53.13a8.33,8.33,0,0,0,3,14.28A28.85,28.85,0,0,0,93,88.44v7.19L72,102a11.17,11.17,0,0,0-8,10.77v28.58a2.46,2.46,0,0,0,2.45,2.47h.45v29.71a2.45,2.45,0,1,0,4.91,0V143.82h9.61v29.71a2.45,2.45,0,1,0,4.91,0V126.72a2.48,2.48,0,0,0-.26-1.11l-5.81-11.7A2.44,2.44,0,0,0,77,112.8a2.48,2.48,0,0,0-1.1,3.32l5.55,11.18v11.57H68.91v-26.1a6.26,6.26,0,0,1,4.46-6l20-6A17,17,0,0,0,110,114.56h0a17,17,0,0,0,16.66-13.87l20,6a6.26,6.26,0,0,1,4.46,6v26.1H138.58V127.3l5.55-11.18a2.48,2.48,0,0,0-1.1-3.32,2.44,2.44,0,0,0-3.29,1.11l-5.81,11.7a2.49,2.49,0,0,0-.26,1.11v46.81a2.45,2.45,0,1,0,4.91,0V143.82h9.61v29.71a2.45,2.45,0,1,0,4.91,0V143.82h.45a2.46,2.46,0,0,0,2.45-2.47V112.77A11.17,11.17,0,0,0,148,102Zm-26-4.54v0A12.12,12.12,0,0,1,110,109.62h0A12.12,12.12,0,0,1,97.94,97.49V91.39a28.32,28.32,0,0,0,24.12,0v4.24h0ZM110,89.14A23.79,23.79,0,0,1,86.33,65.28a2.46,2.46,0,0,0-2.45-2.47,3.37,3.37,0,0,1-1.67-6.28l.16-.11a3.32,3.32,0,0,1,1.51-.37h3.71a5.35,5.35,0,0,0,5.08-3.69l1.69-5.11c5.77-.13,23.94-.94,34.16-6.09a2.48,2.48,0,0,0,1.1-3.32,2.44,2.44,0,0,0-3.29-1.11c-11,5.52-33.51,5.59-33.74,5.59A2.45,2.45,0,0,0,90.25,44L88,50.8a.45.45,0,0,1-.43.31H83.42V39a18,18,0,0,1,17.87-18h23.22a6.22,6.22,0,0,1,6.15,5.31A2.47,2.47,0,0,0,131.88,28a9.24,9.24,0,0,1,4.7,8V54.39a2.48,2.48,0,0,0,1.22,2.14,3.37,3.37,0,0,1-1.67,6.28,2.46,2.46,0,0,0-2.45,2.47A23.79,23.79,0,0,1,110,89.14Z"/></svg>