<svg xmlns="http://www.w3.org/2000/svg" viewBox="0 0 220 220"><defs><style>.a{fill:#e5e5e5;}</style></defs><title>ic</title><path class="a" d="M79.52,72.14a2.45,2.45,0,0,0-3.46.36,4.81,4.81,0,0,1-7.83,0,2.45,2.45,0,0,0-3.46-.36,2.48,2.48,0,0,0-.36,3.48,9.71,9.71,0,0,0,15.47,0A2.48,2.48,0,0,0,79.52,72.14Z"/><path class="a" d="M60.49,57A2.47,2.47,0,0,0,58,59.43v2.93a2.46,2.46,0,1,0,4.92,0V59.43A2.47,2.47,0,0,0,60.49,57Z"/><path class="a" d="M83.79,57a2.47,2.47,0,0,0-2.46,2.47v2.93a2.46,2.46,0,1,0,4.92,0V59.43A2.47,2.47,0,0,0,83.79,57Z"/><path class="a" d="M48.13,125.61l-5.82-11.7a2.46,2.46,0,1,0-4.4,2.21l5.56,11.18v46.23a2.46,2.46,0,1,0,4.92,0V126.72A2.48,2.48,0,0,0,48.13,125.61Z"/><path class="a" d="M105.28,112.8a2.46,2.46,0,0,0-3.3,1.11l-5.82,11.7a2.48,2.48,0,0,0-.26,1.11v46.81a2.46,2.46,0,1,0,4.92,0V127.3l5.56-11.18A2.48,2.48,0,0,0,105.28,112.8Z"/><path class="a" d="M158.14,86.77a2.45,2.45,0,0,0-3.46.36,4.81,4.81,0,0,1-7.83,0,2.45,2.45,0,0,0-3.46-.36,2.48,2.48,0,0,0-.36,3.48,9.71,9.71,0,0,0,15.47,0A2.48,2.48,0,0,0,158.14,86.77Z"/><path class="a" d="M139.12,71.59a2.47,2.47,0,0,0-2.46,2.47V77a2.46,2.46,0,1,0,4.92,0V74.06A2.47,2.47,0,0,0,139.12,71.59Z"/><path class="a" d="M162.42,71.59A2.47,2.47,0,0,0,160,74.06V77a2.46,2.46,0,1,0,4.92,0V74.06A2.47,2.47,0,0,0,162.42,71.59Z"/><path class="a" d="M187,122.22l-20-8a3.36,3.36,0,0,1-2.11-3.14V105a28.41,28.41,0,0,0,3.9-2.66,28.81,28.81,0,0,0,10.66-22.41c0-14.4-10.38-16.47-20.42-18.47-6.42-1.28-13.06-2.61-18.36-6.86a2.46,2.46,0,0,0-3.74.82,29,29,0,0,1-3.72,5.41c-2,2.25-5.08,4.93-8.64,4.93a8.2,8.2,0,0,0-3.36.72v-4.1a29.57,29.57,0,1,1,59.14,0v5.85a2.46,2.46,0,1,0,4.92,0V62.36a34.7,34.7,0,0,0-17.64-30.22,12,12,0,0,0,.16-2c0-7.82-7.64-14.17-17-14.17s-17,6.36-17,14.17a12,12,0,0,0,.16,2,34.7,34.7,0,0,0-17.64,30.22v11.7a8.33,8.33,0,0,0,5.9,8,28.78,28.78,0,0,0,10.58,20.29,28.41,28.41,0,0,0,3.9,2.66v6.08a3.36,3.36,0,0,1-2.11,3.14l-20,8a11.19,11.19,0,0,0-7,10.44V147.2a2.48,2.48,0,0,0,.72,1.75,2.45,2.45,0,0,0,1.74.72h.45v23.86a2.46,2.46,0,1,0,4.92,0V149.67h6.73v23.86a2.46,2.46,0,1,0,4.92,0V141.35a2.46,2.46,0,1,0-4.92,0v3.38h-9.64V132.66a6.27,6.27,0,0,1,3.94-5.85l15.53-6.24c2.06,3.51,7.91,12.21,17.73,17.14a2.45,2.45,0,0,0,2.2,0c9.82-4.93,15.67-13.63,17.73-17.14l15.53,6.24a6.27,6.27,0,0,1,3.94,5.85v12.06h-9.64v-3.38a2.46,2.46,0,1,0-4.92,0v32.18a2.46,2.46,0,1,0,4.92,0V149.67h6.73v23.86a2.46,2.46,0,1,0,4.92,0V149.67h.45A2.47,2.47,0,0,0,194,147.2V132.66A11.19,11.19,0,0,0,187,122.22ZM150.77,20.95c6.55,0,11.9,4,12.09,9a34.34,34.34,0,0,0-24.18,0C138.87,24.94,144.22,20.95,150.77,20.95ZM135.85,98.48A23.85,23.85,0,0,1,127,79.91a2.47,2.47,0,0,0-2.46-2.47,3.38,3.38,0,0,1,0-6.76c7.46,0,12.88-6.79,15.32-10.59,5.74,3.71,12.3,5,18.18,6.19,10.82,2.16,16.46,3.74,16.46,13.62a23.84,23.84,0,0,1-8.83,18.57,23.67,23.67,0,0,1-29.83,0Zm14.92,34.23c-7.42-4.12-12.2-10.79-14.2-14a8.28,8.28,0,0,0,5-7.64v-3.87a28.37,28.37,0,0,0,18.38,0v3.87a8.28,8.28,0,0,0,5,7.64C163,121.92,158.19,128.58,150.77,132.7Z"/><path class="a" d="M110.31,102l-16-4.82-2.66-4a2.45,2.45,0,0,0-2.5-1.06V88.44a28.82,28.82,0,0,0,11.57-21,8.31,8.31,0,0,0,3-14.28V36a14.18,14.18,0,0,0-6.24-11.7A11.13,11.13,0,0,0,86.7,16H63.41A22.92,22.92,0,0,0,40.56,39V53.13a8.31,8.31,0,0,0,3,14.28,28.82,28.82,0,0,0,11.57,21v3.67a2.43,2.43,0,0,0-.8,0,2.46,2.46,0,0,0-1.69,1.08l-2.66,4L34,102a11.17,11.17,0,0,0-8,10.77v60.76a2.46,2.46,0,1,0,4.92,0V112.77a6.26,6.26,0,0,1,4.47-6l11-3.31a2.47,2.47,0,0,0,.54,1.44l9.89,12.41a5.33,5.33,0,0,0,7.42.95l5.45-4.11v59.42a2.46,2.46,0,1,0,4.92,0V114.11l5.45,4.11a5.33,5.33,0,0,0,7.42-.95l9.89-12.41a2.47,2.47,0,0,0,.54-1.44l11,3.31a6.26,6.26,0,0,1,4.47,6,2.46,2.46,0,1,0,4.92,0A11.17,11.17,0,0,0,110.31,102ZM48.39,65.28a2.47,2.47,0,0,0-2.46-2.47,3.36,3.36,0,0,1-1.67-6.28l.16-.11a3.34,3.34,0,0,1,1.52-.37h3.44a5.39,5.39,0,0,0,5.27-4.34l1.79-9a.41.41,0,0,1,.19-.28.48.48,0,0,1,.4,0,54.8,54.8,0,0,0,15.12,2c7.09,0,13.63-1.11,18.42-3.12a2.47,2.47,0,0,0-1.9-4.56C84.52,38.41,78.5,39.4,72.14,39.4A50.59,50.59,0,0,1,58.4,37.64a5.36,5.36,0,0,0-6.8,4.11l-1.79,9a.45.45,0,0,1-.44.36H45.48V39a18,18,0,0,1,17.92-18H86.7a6.24,6.24,0,0,1,6.17,5.31A2.47,2.47,0,0,0,94.09,28a9.24,9.24,0,0,1,4.71,8V54.39A2.47,2.47,0,0,0,100,56.53a3.36,3.36,0,0,1-1.67,6.28,2.47,2.47,0,0,0-2.46,2.47,23.75,23.75,0,1,1-47.5,0Zm12.88,49a.45.45,0,0,1-.62-.08l-8.76-11,3.31-5,13,10.86Zm10.87-8.32L60,95.82V91.39a28.49,28.49,0,0,0,24.2,0v4.43Zm11.49,8.24a.45.45,0,0,1-.62.08l-6.9-5.2,13-10.86,3.31,5Z"/><path class="a" d="M63.44,133h0a2.47,2.47,0,1,0,2.49,2.47A2.45,2.45,0,0,0,63.41,133Z"/><path class="a" d="M63.44,156.43h0a2.47,2.47,0,1,0,2.49,2.47A2.45,2.45,0,0,0,63.41,156.43Z"/><path class="a" d="M63.44,144.73h0a2.47,2.47,0,1,0,2.49,2.47A2.45,2.45,0,0,0,63.41,144.73Z"/></svg>