<svg xmlns="http://www.w3.org/2000/svg" viewBox="0 0 220 220"><defs><style>.a{fill:#e5e5e5;}</style></defs><title>ic</title><path class="a" d="M77.82,72a2.48,2.48,0,0,0-3.48.36,4.86,4.86,0,0,1-7.87,0,2.47,2.47,0,0,0-3.84,3.11,9.81,9.81,0,0,0,15.56,0A2.46,2.46,0,0,0,77.82,72Z"/><path class="a" d="M58.69,56.86a2.47,2.47,0,0,0-2.47,2.47v2.92a2.47,2.47,0,0,0,4.95,0V59.33A2.47,2.47,0,0,0,58.69,56.86Z"/><path class="a" d="M82.11,56.86a2.47,2.47,0,0,0-2.47,2.47v2.92a2.47,2.47,0,0,0,4.95,0V59.33A2.47,2.47,0,0,0,82.11,56.86Z"/><path class="a" d="M46.26,125.35,40.4,113.67A2.47,2.47,0,0,0,36,115.88L41.57,127v46.11a2.47,2.47,0,0,0,4.95,0v-46.7A2.46,2.46,0,0,0,46.26,125.35Z"/><path class="a" d="M103.72,112.57a2.48,2.48,0,0,0-3.32,1.1l-5.86,11.67a2.46,2.46,0,0,0-.26,1.1v46.7a2.47,2.47,0,0,0,4.95,0V127l5.6-11.15A2.46,2.46,0,0,0,103.72,112.57Z"/><path class="a" d="M156.88,86.59a2.48,2.48,0,0,0-3.48.36,4.86,4.86,0,0,1-7.87,0,2.47,2.47,0,0,0-3.84,3.11,9.81,9.81,0,0,0,15.56,0A2.46,2.46,0,0,0,156.88,86.59Z"/><path class="a" d="M137.76,71.45a2.47,2.47,0,0,0-2.47,2.47v2.92a2.47,2.47,0,0,0,4.95,0V73.92A2.47,2.47,0,0,0,137.76,71.45Z"/><path class="a" d="M161.18,71.45a2.47,2.47,0,0,0-2.47,2.47v2.92a2.47,2.47,0,0,0,4.95,0V73.92A2.47,2.47,0,0,0,161.18,71.45Z"/><path class="a" d="M108.78,101.79,92.71,97,90,93a2.47,2.47,0,0,0-2.51-1.06V88.26a28.7,28.7,0,0,0,11.64-21,8.27,8.27,0,0,0,3-14.24V36A14.12,14.12,0,0,0,95.89,24.3,11.17,11.17,0,0,0,85,16H61.62a23,23,0,0,0-23,22.9V53a8.27,8.27,0,0,0,3,14.24,28.7,28.7,0,0,0,11.64,21v3.66A2.47,2.47,0,0,0,50.77,93l-2.68,4L32,101.79a11.16,11.16,0,0,0-8,10.75v60.61a2.47,2.47,0,0,0,4.95,0V112.54a6.25,6.25,0,0,1,4.5-6l11.05-3.31a2.46,2.46,0,0,0,.54,1.44L55,117a5.39,5.39,0,0,0,7.46.94l5.48-4.1v59.27a2.47,2.47,0,0,0,4.95,0V113.87l5.48,4.1a5.39,5.39,0,0,0,7.46-.94l9.94-12.38a2.45,2.45,0,0,0,.54-1.44l11.05,3.31a6.25,6.25,0,0,1,4.5,6,2.47,2.47,0,0,0,4.95,0A11.16,11.16,0,0,0,108.78,101.79ZM46.52,65.16A2.47,2.47,0,0,0,44,62.7a3.38,3.38,0,0,1-3.38-3.37,3.33,3.33,0,0,1,1.7-2.9l.16-.1A3.38,3.38,0,0,1,44,56H47.5a5.41,5.41,0,0,0,5.3-4.33l1.8-9a.41.41,0,0,1,.19-.28.49.49,0,0,1,.4,0,55.52,55.52,0,0,0,15.21,2c7.13,0,13.7-1.1,18.52-3.11A2.47,2.47,0,1,0,87,36.62c-4.17,1.73-10.22,2.73-16.62,2.73a51.26,51.26,0,0,1-13.82-1.76,5.48,5.48,0,0,0-4.35.56,5.37,5.37,0,0,0-2.48,3.54l-1.8,9a.45.45,0,0,1-.44.36H43.59V38.9a18,18,0,0,1,18-18H85a6.26,6.26,0,0,1,6.2,5.3A2.47,2.47,0,0,0,92.47,28a9.2,9.2,0,0,1,4.74,8V54.3a2.46,2.46,0,0,0,1.23,2.13,3.33,3.33,0,0,1,1.7,2.9,3.38,3.38,0,0,1-3.38,3.37,2.47,2.47,0,0,0-2.47,2.47,23.88,23.88,0,0,1-47.76,0Zm13,48.86a.45.45,0,0,1-.63-.08L50,103l3.33-5,13.05,10.84Zm10.93-8.3L58.23,95.62V91.2a28.86,28.86,0,0,0,24.33,0v4.42ZM82,113.95a.45.45,0,0,1-.63.08l-6.94-5.19L87.44,98l3.33,5Z"/><path class="a" d="M61.65,132.74h0a2.46,2.46,0,0,0-2.46,2.47,2.48,2.48,0,1,0,2.49-2.47Z"/><path class="a" d="M61.65,156.09h0a2.46,2.46,0,0,0-2.46,2.47,2.48,2.48,0,1,0,2.49-2.47Z"/><path class="a" d="M61.65,144.41h0a2.46,2.46,0,0,0-2.46,2.47,2.48,2.48,0,1,0,2.49-2.47Z"/><path class="a" d="M135.19,118.45a8.26,8.26,0,0,0,5-7.62V107a28.75,28.75,0,0,0,18.48,0v3.86a8.36,8.36,0,0,0,0,.88,2.4,2.4,0,0,0,3.46,1.84l.18-.09a2.39,2.39,0,0,0,1.28-2.36q0-.13,0-.27v-6.06a28.63,28.63,0,0,0,14.64-25c0-14.37-10.44-16.43-20.54-18.43-6.44-1.27-13.11-2.59-18.43-6.82a2.52,2.52,0,0,0-.95-.49,2.49,2.49,0,0,0-2.84,1.28,28.92,28.92,0,0,1-3.75,5.4c-2,2.24-5.11,4.92-8.69,4.92a8.3,8.3,0,0,0-3.38.72V62.62a29.74,29.74,0,1,1,59.48-.38V68a2.54,2.54,0,0,0,2.4,2.57,2.47,2.47,0,0,0,2.55-2.47V62.24a34.57,34.57,0,0,0-17.74-30.15,11.91,11.91,0,0,0,.16-2c0-7.8-7.68-14.14-17.12-14.14s-17.12,6.34-17.12,14.14a11.87,11.87,0,0,0,.16,2,34.57,34.57,0,0,0-17.74,30.15V73.92a8.32,8.32,0,0,0,5.93,8,28.7,28.7,0,0,0,14.56,22.89v6.06a3.35,3.35,0,0,1-2.13,3.13l-20.08,8A11.17,11.17,0,0,0,106,132.38v14.44a2.57,2.57,0,0,0,.19,1,2.48,2.48,0,0,0,2.29,1.52h.45V173a2.54,2.54,0,0,0,2.4,2.57,2.47,2.47,0,0,0,2.55-2.47v-23.8h6.76V173a2.54,2.54,0,0,0,2.4,2.57,2.47,2.47,0,0,0,2.55-2.47v-32a2.54,2.54,0,0,0-2.4-2.57,2.47,2.47,0,0,0-2.55,2.47v3.37h-9.69v-12a6.29,6.29,0,0,1,4-5.84l15.62-6.22A48.84,48.84,0,0,0,139.2,131a2.48,2.48,0,0,0,3.52-.17h0a2.47,2.47,0,0,0-.17-3.47A44.93,44.93,0,0,1,135.19,118.45Zm14.28-97.51c6.59,0,12,4,12.16,8.93a34.79,34.79,0,0,0-24.32,0C137.5,24.92,142.88,20.93,149.47,20.93Zm-15,77.34a23.69,23.69,0,0,1-8.88-18.52,2.47,2.47,0,0,0-2.47-2.47,3.37,3.37,0,1,1,0-6.74c7.5,0,12.95-6.77,15.41-10.56,5.77,3.7,12.37,5,18.28,6.18,10.88,2.15,16.55,3.73,16.55,13.59a23.9,23.9,0,0,1-38.88,18.52Z"/><path class="a" d="M161.42,151.19a1.71,1.71,0,0,0-1.71,1.71v2.32a1.71,1.71,0,0,0,3.43,0V152.9A1.71,1.71,0,0,0,161.42,151.19Z"/><path class="a" d="M183.21,146.09a6.43,6.43,0,0,0-9.07,0,1.71,1.71,0,0,0,2.42,2.42,3,3,0,0,1,4.22,0,1.71,1.71,0,0,0,2.43-2.42Z"/><path class="a" d="M166,146.09a6.43,6.43,0,0,0-9.07,0,1.71,1.71,0,1,0,2.42,2.42,3,3,0,0,1,4.22,0,1.71,1.71,0,0,0,2.43-2.42Z"/><path class="a" d="M178.67,151.19A1.71,1.71,0,0,0,177,152.9v2.32a1.71,1.71,0,0,0,3.43,0V152.9A1.71,1.71,0,0,0,178.67,151.19Z"/><path class="a" d="M175,164.38a1.72,1.72,0,0,0-2.42,0,3.63,3.63,0,0,1-5.11,0,1.71,1.71,0,1,0-2.42,2.42,7.07,7.07,0,0,0,10,0A1.7,1.7,0,0,0,175,164.38Z"/><path class="a" d="M171.5,151.38a1.71,1.71,0,0,0-1.71,1.71v4.08H168.6a1.71,1.71,0,1,0,0,3.42h2.91a1.71,1.71,0,0,0,1.71-1.71v-5.79A1.71,1.71,0,0,0,171.5,151.38Z"/><path class="a" d="M183.58,206a1.71,1.71,0,0,0,1.71-1.71v-7.75h5.13v7.75a1.71,1.71,0,0,0,1.71,1.71h0a1.71,1.71,0,0,0,1.71-1.71V183.91a14.77,14.77,0,0,0-2.42-8.13,1.77,1.77,0,0,0-2.29-.63,1.71,1.71,0,0,0-.61,2.45,11.38,11.38,0,0,1,1.9,6.31v9.21h-5.13v-6.33a1.76,1.76,0,0,0-1.55-1.77,1.71,1.71,0,0,0-1.88,1.7v17.57a1.71,1.71,0,0,0,1.71,1.71Z"/><path class="a" d="M187.29,121.78a1.72,1.72,0,0,0-2.46.64,1.75,1.75,0,0,0,.63,2.24,19.56,19.56,0,0,1,8.69,12.51,24.33,24.33,0,0,0-2.67-1.75,17.29,17.29,0,0,0-15.4-1.3c-7,2.83-10.5,1.28-12.5-.14a12.75,12.75,0,0,1-1.6-1.35,1.78,1.78,0,0,0-2.35-.18,1.7,1.7,0,0,0-.14,2.54c.3.3.61.58.91.85-1.81,2.5-6,3.61-8.52,4-.95-1.85-2.77-6.14-1.3-9.44,3.23-7.23,13.17-9.8,20.71-9.8a26.74,26.74,0,0,1,10.37,2.08,1.72,1.72,0,0,0,2.31-1.05,1.76,1.76,0,0,0-1-2.13,30.22,30.22,0,0,0-11.63-2.32c-13.69,0-21.3,6.11-23.85,11.83-2.29,5.13.71,11.22,1.72,13l-.14,1.43a6.21,6.21,0,0,0-1.17,12.06,16.36,16.36,0,0,0,6.69,14.65l.36.26a14.9,14.9,0,0,0-8.66,13.5v20.38A1.71,1.71,0,0,0,148,206h0a1.71,1.71,0,0,0,1.72-1.71v-7.75h5.13v7.75a1.71,1.71,0,0,0,1.71,1.71h0a1.71,1.71,0,0,0,1.71-1.71v-17.5a1.76,1.76,0,0,0-1.55-1.77,1.71,1.71,0,0,0-1.88,1.7v6.4h-5.13v-9.21a11.48,11.48,0,0,1,6.53-10.34,13.93,13.93,0,0,0,1.51,4.38,1.72,1.72,0,0,0,2.53.55,1.75,1.75,0,0,0,.45-2.25,10.45,10.45,0,0,1-.91-2.32l2.71,2a12.84,12.84,0,0,0,15.09,0l2.72-2a10.62,10.62,0,0,1-10.26,7.91,10.51,10.51,0,0,1-6.54-2.25,1.78,1.78,0,0,0-2.35.08,1.7,1.7,0,0,0,.15,2.54,14,14,0,0,0,22.59-8.64,11.53,11.53,0,0,1,1.47.84,1.72,1.72,0,0,0,2.44-.55,1.75,1.75,0,0,0-.57-2.32,15,15,0,0,0-2-1.14l.36-.26a16.36,16.36,0,0,0,6.69-14.65,6.21,6.21,0,0,0-1.17-12.06l-.18-1.91a1.76,1.76,0,0,0-1.71-1.62,1.71,1.71,0,0,0-1.71,1.87l1.35,13.92a12.94,12.94,0,0,1-5.28,11.68l-8,5.76a9.41,9.41,0,0,1-11.06,0l-8-5.76a12.94,12.94,0,0,1-5.28-11.68l1.22-12.55c2.63-.4,8.09-1.65,10.73-5.39,3.86,2,8.5,1.8,14.13-.47a13.76,13.76,0,0,1,12.33,1.05,21.16,21.16,0,0,1,5.28,4.19,1.72,1.72,0,0,0,2.12.41,1.76,1.76,0,0,0,.91-1.57A22.87,22.87,0,0,0,187.29,121.78Zm-39.08,30.1a2.79,2.79,0,0,1,.47-4.84Zm44.86-2.29a2.79,2.79,0,0,1-1.19,2.29l-.47-4.83A2.8,2.8,0,0,1,193.07,149.59Z"/></svg>