<svg xmlns="http://www.w3.org/2000/svg" viewBox="0 0 180 180"><defs><style>.a{fill:#e5e5e5;}</style></defs><title>ic</title><path class="a" d="M172,101.4c-.27-4.7-5.83-8.36-17-11.16a6.21,6.21,0,0,0,.59-2.57V68.47h0C154.57,52.47,89.3,52,81.8,52S9,52.47,8,68.47H8V87.67C8,92.89,14.72,97,24.69,100a6,6,0,0,0-.25,1.39h0v19.17C13.66,123.35,8.29,127,8,131.58H8v19.21c0,3.63,3.27,6.71,8.6,9.28,1.08.48,3,1.36,5.13,2.09.81.29,1.66.56,2.53.83l.26.08q1.11.34,2.27.66l.89.24,1.33.35a198.67,198.67,0,0,0,36.38,5.19h0c4.24.25,8.56.41,12.94.46,1.16,0,2.32,0,3.46,0,1.51,0,3,0,4.61,0,4-.07,7.92-.21,11.77-.44h.06c4.69-.28,9.22-.69,13.58-1.19h0c.06,0,.11,0,.17,0,4.85-.56,9.46-1.25,13.73-2.06l2.6-.5.57-.12c8.07-1.66,15.06-3.82,19.85-6.49l.76-.44c.3-.18.59-.36.87-.55s.57-.33.81-.51a15.42,15.42,0,0,0,3.83-4.38,6.16,6.16,0,0,0,.53-2.47V132.84c9.81-3,16.39-7.08,16.4-12.25V101.4ZM21.67,93.21c-5.32-2-8.19-4-8.2-5.55V76.3a40.6,40.6,0,0,0,8.2,3.78ZM13.51,68.7c.43-4.09,23.22-11.21,68.29-11.21s67.87,7.12,68.29,11.21c-.33,1.86-4.53,4.31-12,6.61-9.67,3-24.8,5.75-44,6.6l-3,.12-2.47.07c-2.26.05-4.56.09-6.93.09s-4.66,0-6.93-.09L72.4,82l-3-.12c-19.18-.85-34.31-3.6-44-6.6C18,73,13.84,70.56,13.51,68.7Zm136.63,7.6V87.66a2.16,2.16,0,0,1-.63,1.34l-1.07.76a26.55,26.55,0,0,1-6.5,3.37V80.08A40.61,40.61,0,0,0,150.13,76.3Zm-13.67,5.46V95c-2.45.72-5.21,1.4-8.2,2V83.65C131.17,83.08,133.91,82.45,136.47,81.76ZM122.8,84.63V98.08c-2.59.46-5.32.88-8.2,1.26V85.79Q118.83,85.28,122.8,84.63Zm-13.67,1.75V100q-4,.42-8.2.73V87C103.7,86.86,106.44,86.64,109.13,86.38Zm-13.67,1V101l-1.38.08H94c-1.83.08-3.7.14-5.6.19l-.89,0-3,0V87.66l2.25,0h.43Q91.35,87.54,95.47,87.36Zm-16.4.3v13.7c-3.68,0-7.34-.13-10.93-.31V87.36q4.11.19,8.24.26h.43ZM62.67,87v13.66c-2.78-.2-5.53-.43-8.2-.71V86.38C57.16,86.64,59.89,86.86,62.67,87ZM49,85.79V99.35l-1.64-.2-1-.15q-2.37-.34-4.64-.73l-.89-.16V84.63Q44.77,85.27,49,85.79ZM27.13,95V81.76c2.55.69,5.3,1.32,8.2,1.9V97l-1-.21c-1.45-.32-2.87-.66-4.23-1C29.06,95.56,28.08,95.28,27.13,95Zm2.73,14.22a40.6,40.6,0,0,0,8.2,3.78v13c-4.3-1.67-7.07-3.37-8-4.88l-.18-.31a1.74,1.74,0,0,1,0-.26Zm-8.2,47-1.56-.61,0,0c-4.29-1.79-6.6-3.54-6.61-4.92V139.42a40.6,40.6,0,0,0,8.2,3.78Zm13.67,3.88q-3.76-.8-6.93-1.67l-1-.28-.27-.08V144.87c2.55.69,5.3,1.32,8.2,1.9ZM49,162.48q-4.33-.57-8.2-1.26V147.74q4,.65,8.2,1.16Zm13.67,1.36c-2.3-.16-4.56-.35-6.78-.57l-.83-.08-.59-.06V149.5c2.69.26,5.43.48,8.2.67Zm16.4.65H77.48l-.71,0L73,164.37l-.46,0q-2.23-.07-4.44-.18v-13.7q4.11.19,8.24.26h.43l2.26,0Zm16.4-.32-1.77.08c-1.65.07-3.31.13-5,.17l-1.2,0-3,0V150.77l2.26,0h.43q4.13-.08,8.24-.26Zm13.66-1c-1.69.18-3.42.35-5.19.49l-1.19.1-1.82.14V150.16c2.77-.18,5.51-.4,8.2-.67Zm13.67-1.9q-3.86.68-8.2,1.26V148.9q4.23-.51,8.2-1.16Zm13.67-3.09c-2.44.71-5.18,1.39-8.2,2V146.77c2.9-.57,5.65-1.2,8.2-1.9Zm-45.56-13-1.84.06-2,0c-1.72,0-3.45.05-5.23.05-2.37,0-4.66,0-6.93-.09l-2.47-.07-3-.12c-19.18-.85-34.31-3.6-44-6.6-7.52-2.33-11.72-4.81-12-6.68.3-1,3.07-3.61,13.21-6.11l.14.13c3.74,3.79,11.49,6.77,21.14,9l.68.15,2.15.47a210,210,0,0,0,31,3.94h0q5.55.33,11.35.43c1.71,0,3.39.06,5,.06,1.89,0,3.82,0,5.79-.07,3.58-.07,7.1-.22,10.57-.43h.11a210.6,210.6,0,0,0,31.55-4.06,49.4,49.4,0,0,1-8.09,3.17C127.93,141.6,111.62,144.48,90.9,145.15ZM43.53,127.89V114.68c2.55.69,5.3,1.33,8.2,1.9V130Q47.2,129,43.53,127.89ZM57.2,131V117.56q4,.65,8.2,1.16v13.57c-1.67-.22-3.31-.45-4.88-.7l-.19,0C59.25,131.39,58.23,131.2,57.2,131Zm13.67,1.92V119.31c2.69.26,5.43.48,8.2.67v13.68l-.68,0-1.11-.08q-2.62-.21-5.12-.46L71.09,133ZM84.53,134v-13.7q4.11.19,8.24.26h.43l2.25,0v13.7c-1.33,0-2.67,0-4,0h-.6c-2.06-.05-4.06-.13-6-.23Zm16.4.3v-13.7l2.25,0h.43q4.13-.08,8.24-.26V134C108.27,134.15,104.62,134.25,100.93,134.29Zm16.4-.65V120c2.77-.18,5.51-.4,8.2-.67v13.61c-1.59.17-3.17.33-4.81.47l-.29,0C119.42,133.51,118.37,133.56,117.33,133.64ZM131,132.28V118.72q4.23-.51,8.2-1.16V131l-.26,0c-1.2.21-2.41.41-3.65.6l-2.18.32Zm19.13,18.5a1.75,1.75,0,0,1-.3.9l-.93.82a24.42,24.42,0,0,1-7,3.79V143.19a40.61,40.61,0,0,0,8.2-3.78Zm2.74-22.83-1.19.33c-1.36.38-2.8.74-4.27,1.09l-2.09.47-.65.13V116.58c2.9-.57,5.65-1.2,8.2-1.9Zm1.67-19.7c-9.67,3-24.8,5.75-44,6.6l-3,.12-2.47.07c-2.26,0-4.56.09-6.93.09s-4.66,0-6.93-.09L88.8,115l-3-.12c-19.18-.85-34.31-3.6-44-6.6-7.45-2.31-11.65-4.77-12-6.62a.65.65,0,0,1,0-.16l.58.13c1.07.26,2.16.5,3.28.74,5.43,1.17,11.45,2.14,17.86,2.87h.07c4.37.5,8.9.89,13.55,1.17l.1,0h.05q5,.3,10.17.42c2.1.05,4.17.08,6.17.08,1.43,0,2.91,0,4.39,0,19.86-.31,38.27-2.68,51.08-6.35L139,100l1-.32c1-.32,1.94-.65,2.85-1l.47-.18q1.16-.44,2.23-.91l.61-.27c.76-.34,1.49-.69,2.17-1.06.31-.16.57-.33.86-.49s.66-.38,1-.58.38-.21.54-.32c12.24,2.66,15.46,5.58,15.77,6.72C166.25,103.44,162,105.91,154.54,108.24Zm12,12.34c0,1.54-2.88,3.55-8.2,5.56V113a40.61,40.61,0,0,0,8.2-3.78Z"/></svg>