<svg xmlns="http://www.w3.org/2000/svg" viewBox="0 0 180 180"><defs><style>.a{fill:#e5e5e5;}</style></defs><title>ic</title><path class="a" d="M38.59,164.6c1.07.26,2.17.51,3.29.75,5.45,1.2,11.48,2.18,17.91,2.93h.07c4.38.51,8.92.91,13.59,1.19l.1,0h.05q5,.3,10.2.43C85.92,170,88,170,90,170c1.44,0,2.91,0,4.4,0,19.91-.31,38.37-2.73,51.21-6.48l1.74-.52,1-.32c1-.32,1.94-.66,2.86-1l.47-.18c.78-.3,1.52-.61,2.23-.93l.62-.27c.76-.35,1.49-.71,2.17-1.08.31-.17.57-.34.86-.5s.66-.39,1-.59.38-.22.54-.33c1.28-1.07,3.42-2.91,4.29-4.72a6.43,6.43,0,0,0,.59-2.62V130.8h0C163,114.48,97.52,114,90,114s-73,.48-74,16.8h0v19.6c0,5.32,6.73,9.48,16.73,12.58C34.58,163.6,38.41,164.55,38.59,164.6ZM43.41,160l-1-.22c-1.46-.33-2.88-.67-4.24-1-1-.27-2-.55-3-.83V144.36c2.56.71,5.31,1.35,8.22,1.93Zm13.7,2.35-1.64-.21-1-.15q-2.38-.35-4.65-.74l-.9-.16V147.29q4,.66,8.22,1.18Zm13.7,1.39c-2.79-.2-5.54-.44-8.22-.73V149.08c2.7.27,5.44.49,8.22.68Zm16.44.67c-3.69,0-7.36-.13-11-.32v-14q4.12.2,8.27.27H85l2.26,0ZM103.7,164l-1.38.08h-.12c-1.84.08-3.71.15-5.61.19l-.89,0-3,0v-14l2.26,0h.44q4.14-.08,8.27-.27Zm13.7-1.08q-4,.43-8.22.74V149.76c2.78-.19,5.53-.41,8.22-.68Zm13.7-1.95c-2.6.47-5.33.9-8.22,1.29V148.47q4.24-.52,8.22-1.18Zm13.7-3.16c-2.46.73-5.22,1.43-8.22,2.08V146.3c2.91-.59,5.66-1.23,8.22-1.93Zm13.7-7.48a2.22,2.22,0,0,1-.63,1.37l-1.07.78A26.46,26.46,0,0,1,150.3,156V142.65a40.39,40.39,0,0,0,8.22-3.85ZM29.7,156.05c-5.33-2-8.22-4.09-8.22-5.66V138.79a40.38,40.38,0,0,0,8.22,3.85Zm-8.18-25C22,126.87,44.81,119.6,90,119.6s68,7.27,68.48,11.44c-.33,1.89-4.54,4.39-12,6.75-9.7,3.06-24.87,5.86-44.1,6.73l-3,.12-2.48.08c-2.27.05-4.57.09-6.95.09s-4.68,0-6.95-.09l-2.48-.08-3-.12c-19.23-.87-34.4-3.67-44.1-6.73C26.06,135.43,21.85,132.93,21.52,131Z"/></svg>