<svg xmlns="http://www.w3.org/2000/svg" viewBox="0 0 180 180"><defs><style>.a{fill:#e5e5e5;}</style></defs><title>ic</title><path class="a" d="M172,131.5c-.27-4.71-5.83-8.38-17-11.19a6.23,6.23,0,0,0,.59-2.57V98.5h0c-1-16-66.26-16.5-73.75-16.5S9,82.47,8,98.5H8v19.25c0,5.22,6.72,9.31,16.69,12.36a6.07,6.07,0,0,0-.25,1.39h0v19.21c.38,3,1.52,3.82,2.31,5.08l.14.13c3.74,3.8,11.49,6.79,21.14,9l.68.15,2.15.47a209.59,209.59,0,0,0,31,3.95h0q5.55.33,11.35.43c1.71,0,3.39.06,5,.06,1.89,0,3.82,0,5.79-.07,3.58-.07,7.1-.22,10.57-.43h.11a210.18,210.18,0,0,0,31.55-4.06c3.06-.7,9.38-2.42,9.38-2.42,9.81-3,16.39-7.1,16.4-12.28V131.5Zm-150.3-8.2c-5.32-2-8.19-4-8.2-5.56V106.35a40.56,40.56,0,0,0,8.2,3.78Zm3.8-17.94c-7.43-2.31-11.62-4.77-12-6.62.43-4.1,23.22-11.24,68.29-11.24s67.87,7.14,68.29,11.24c-.33,1.86-4.53,4.31-12,6.62-9.67,3-24.8,5.76-44,6.61l-3,.12-2.47.07c-2.26.05-4.56.09-6.93.09s-4.66,0-6.93-.09l-2.47-.07-3-.12C50.27,111.12,35.13,108.37,25.46,105.36Zm124.67,1v11.38a2.17,2.17,0,0,1-.63,1.34l-1.07.76a26.53,26.53,0,0,1-6.5,3.38V110.14A40.57,40.57,0,0,0,150.13,106.35Zm-13.67,5.47v13.26c-2.45.72-5.21,1.4-8.2,2v-13.4C131.17,113.14,133.91,112.51,136.47,111.82ZM122.8,114.7v13.48c-2.59.46-5.32.89-8.2,1.27V115.86Q118.83,115.35,122.8,114.7Zm-13.67,1.75v13.64q-4,.42-8.2.73v-13.7C103.7,116.94,106.44,116.71,109.13,116.45Zm-13.67,1v13.72l-1.38.08H94c-1.83.08-3.7.14-5.6.19l-.89,0-3,0V117.74l2.25,0h.43Q91.35,117.62,95.47,117.43Zm-16.4.31v13.73c-3.68,0-7.34-.13-10.93-.31V117.43q4.11.19,8.24.26h.43Zm-16.4-.62v13.69c-2.78-.2-5.53-.43-8.2-.71V116.45C57.16,116.71,59.89,116.94,62.67,117.12ZM49,115.86v13.59l-1.64-.2-1-.15q-2.37-.34-4.64-.73l-.89-.16V114.7Q44.77,115.34,49,115.86Zm-21.87-4c2.55.69,5.3,1.33,8.2,1.9v13.42l-1-.21c-1.45-.32-2.87-.66-4.23-1-1-.27-2-.54-3-.81ZM38.07,156.2c-4.3-1.67-7.07-3.37-8-4.89l-.18-.31a1.75,1.75,0,0,1,0-.26V139.35a40.56,40.56,0,0,0,8.2,3.78Zm13.67,3.92q-4.53-1-8.2-2.07V144.82c2.55.69,5.3,1.33,8.2,1.9Zm13.67,2.35c-1.67-.22-3.31-.45-4.88-.7l-.19,0c-1.08-.17-2.1-.36-3.13-.54V147.7q4,.65,8.2,1.16Zm13.67,1.36-.68,0-1.11-.08q-2.62-.21-5.12-.46l-1.07-.11-.22,0V149.45c2.69.26,5.43.48,8.2.67Zm16.4.64c-1.33,0-2.67,0-4,0h-.6c-2.06-.05-4.06-.13-6-.23h-.32V150.43q4.11.19,8.24.26h.43l2.25,0Zm16.4-.32c-3.59.18-7.24.28-10.93.32V150.74l2.25,0h.43q4.13-.08,8.24-.26Zm13.67-1.05c-1.59.17-3.17.34-4.81.47l-.29,0c-1,.09-2.07.14-3.11.21V150.12c2.77-.18,5.51-.4,8.2-.67Zm13.67-1.89-.26,0c-1.2.21-2.41.42-3.65.6l-2.18.32-2.11.27V148.86q4.23-.51,8.2-1.16Zm13.67-3.1-1.19.34c-1.36.38-2.8.74-4.27,1.09l-2.09.47-.65.13V146.72c2.9-.57,5.65-1.21,8.2-1.9Zm1.67-19.74c-9.67,3-24.8,5.76-44,6.61l-3,.12-2.47.07c-2.26,0-4.56.09-6.93.09s-4.66,0-6.93-.09l-2.47-.07-3-.12c-19.18-.85-34.31-3.61-44-6.61-7.45-2.32-11.65-4.78-12-6.64a.65.65,0,0,1,0-.16l.58.13c1.07.26,2.16.5,3.28.74,5.43,1.18,11.45,2.14,17.86,2.88h.07c4.37.5,8.9.89,13.55,1.17l.1,0h.05q5,.3,10.17.42c2.1.05,4.17.08,6.17.08,1.43,0,2.91,0,4.39,0,19.86-.31,38.27-2.68,51.08-6.37l1.74-.51,1-.32c1-.32,1.94-.65,2.85-1l.47-.18q1.16-.44,2.23-.91l.61-.27c.76-.34,1.49-.7,2.17-1.06.31-.16.57-.33.86-.49s.66-.38,1-.58.38-.21.54-.32c12.24,2.67,15.46,5.59,15.77,6.73C166.25,133.55,162,136,154.54,138.36Zm12,12.37c0,1.55-2.88,3.56-8.2,5.57V143.14a40.57,40.57,0,0,0,8.2-3.78Z"/></svg>