<svg xmlns="http://www.w3.org/2000/svg" viewBox="0 0 176 156"><defs><style>.cls-1{fill:#f5775b;}</style></defs><title>ic</title><g id="Layer_1" data-name="Layer 1"><path class="cls-1" d="M59.74,57.88a2.24,2.24,0,0,0-3.15.33,4.4,4.4,0,0,1-7.13,0A2.24,2.24,0,0,0,46,61a8.87,8.87,0,0,0,14.09,0A2.24,2.24,0,0,0,59.74,57.88Z"/><path class="cls-1" d="M42.41,44.12a2.24,2.24,0,0,0-2.24,2.24V49a2.24,2.24,0,0,0,4.48,0V46.36A2.24,2.24,0,0,0,42.41,44.12Z"/><path class="cls-1" d="M63.63,44.12a2.24,2.24,0,0,0-2.24,2.24V49a2.24,2.24,0,0,0,4.48,0V46.36A2.24,2.24,0,0,0,63.63,44.12Z"/><path class="cls-1" d="M31.16,106.34l-5.3-10.61a2.24,2.24,0,0,0-4,2l5.07,10.13v41.89a2.24,2.24,0,0,0,4.48,0V107.34A2.24,2.24,0,0,0,31.16,106.34Z"/><path class="cls-1" d="M83.2,94.73a2.24,2.24,0,0,0-3,1l-5.3,10.61a2.24,2.24,0,0,0-.24,1v42.42a2.24,2.24,0,0,0,4.48,0V107.87L84.2,97.74A2.24,2.24,0,0,0,83.2,94.73Z"/><path class="cls-1" d="M131.35,71.13a2.24,2.24,0,0,0-3.15.33,4.4,4.4,0,0,1-7.13,0,2.24,2.24,0,0,0-3.48,2.82,8.87,8.87,0,0,0,14.09,0A2.24,2.24,0,0,0,131.35,71.13Z"/><path class="cls-1" d="M114,57.38a2.24,2.24,0,0,0-2.24,2.24v2.65a2.24,2.24,0,0,0,4.48,0V59.62A2.24,2.24,0,0,0,114,57.38Z"/><path class="cls-1" d="M135.24,57.38A2.24,2.24,0,0,0,133,59.62v2.65a2.24,2.24,0,0,0,4.48,0V59.62A2.24,2.24,0,0,0,135.24,57.38Z"/><path class="cls-1" d="M157.59,103.26,139.4,96a3,3,0,0,1-1.93-2.84V87.64A25.88,25.88,0,0,0,141,85.23a26,26,0,0,0,9.71-20.31c0-13.05-9.46-14.93-18.6-16.74-5.85-1.16-11.9-2.36-16.72-6.22a2.24,2.24,0,0,0-3.4.74,26.27,26.27,0,0,1-3.39,4.9c-1.8,2-4.62,4.47-7.87,4.47a7.5,7.5,0,0,0-3.06.65V49a26.93,26.93,0,0,1,53.86,0v5.3a2.24,2.24,0,0,0,4.48,0V49A31.42,31.42,0,0,0,140,21.62a10.85,10.85,0,0,0,.15-1.77c0-7.08-7-12.85-15.5-12.85s-15.5,5.76-15.5,12.85a10.82,10.82,0,0,0,.15,1.77A31.42,31.42,0,0,0,93.21,49V59.62a7.56,7.56,0,0,0,5.37,7.22,26.06,26.06,0,0,0,13.19,20.8v5.51A3,3,0,0,1,109.85,96l-18.19,7.27a10.15,10.15,0,0,0-6.41,9.47V125.9a2.24,2.24,0,0,0,2.24,2.24h.41v21.62a2.24,2.24,0,0,0,4.48,0V128.14h6.13v21.62a2.24,2.24,0,0,0,4.48,0V120.59a2.24,2.24,0,0,0-4.48,0v3.06H89.74V112.72a5.69,5.69,0,0,1,3.59-5.3l14.14-5.66c1.88,3.18,7.21,11.06,16.15,15.53a2.24,2.24,0,0,0,2,0c8.95-4.47,14.27-12.35,16.15-15.53l14.14,5.66a5.69,5.69,0,0,1,3.59,5.3v10.93h-8.78V120.6a2.24,2.24,0,0,0-4.48,0v29.16a2.24,2.24,0,0,0,4.48,0V128.14h6.13v21.62a2.24,2.24,0,0,0,4.48,0V128.14h.41A2.24,2.24,0,0,0,164,125.9V112.72A10.15,10.15,0,0,0,157.59,103.26Zm-33-91.78c6,0,10.84,3.62,11,8.12a31.42,31.42,0,0,0-22,0C113.79,15.1,118.66,11.48,124.63,11.48ZM111,81.74a21.55,21.55,0,0,1-8-16.82,2.24,2.24,0,0,0-2.24-2.24,3.06,3.06,0,1,1,0-6.12c6.8,0,11.73-6.15,14-9.59,5.23,3.36,11.2,4.55,16.55,5.61,9.85,2,15,3.39,15,12.35a21.55,21.55,0,0,1-8,16.82,21.64,21.64,0,0,1-27.17,0Zm13.59,31a37.48,37.48,0,0,1-12.93-12.69,7.5,7.5,0,0,0,4.56-6.92V89.63a26,26,0,0,0,16.73,0v3.51a7.5,7.5,0,0,0,4.56,6.92A37.48,37.48,0,0,1,124.63,112.76Z"/><path class="cls-1" d="M87.78,84.93,73.23,80.57,70.8,76.93a2.24,2.24,0,0,0-2.28-1V72.65A26.09,26.09,0,0,0,79.06,53.58a7.52,7.52,0,0,0,2.72-12.94V25.15a12.83,12.83,0,0,0-5.68-10.6A10.12,10.12,0,0,0,66.28,7H45.07A20.83,20.83,0,0,0,24.26,27.8V40.65A7.52,7.52,0,0,0,27,53.58,26.09,26.09,0,0,0,37.52,72.65V76a2.24,2.24,0,0,0-2.28,1l-2.43,3.64L18.27,84.93A10.13,10.13,0,0,0,11,94.7v55.06a2.24,2.24,0,0,0,4.48,0V94.7a5.68,5.68,0,0,1,4.07-5.47l10-3a2.24,2.24,0,0,0,.49,1.31l9,11.25a4.87,4.87,0,0,0,6.76.86l5-3.72v53.85a2.24,2.24,0,0,0,4.48,0V95.91l5,3.72A4.87,4.87,0,0,0,67,98.78l9-11.25a2.23,2.23,0,0,0,.49-1.31l10,3a5.68,5.68,0,0,1,4.07,5.47,2.24,2.24,0,0,0,4.48,0A10.13,10.13,0,0,0,87.78,84.93ZM31.4,51.66a2.24,2.24,0,0,0-2.24-2.24,3.07,3.07,0,0,1-3.06-3.06,3,3,0,0,1,1.54-2.63l.14-.1a3.06,3.06,0,0,1,1.38-.34h3.13a4.91,4.91,0,0,0,4.8-3.93l1.63-8.15a.37.37,0,0,1,.18-.26.44.44,0,0,1,.36,0A50.14,50.14,0,0,0,53,32.69c6.45,0,12.41-1,16.78-2.82a2.24,2.24,0,1,0-1.73-4.14c-3.77,1.57-9.26,2.48-15,2.48a46.29,46.29,0,0,1-12.52-1.59,5,5,0,0,0-3.94.51,4.88,4.88,0,0,0-2.25,3.21l-1.63,8.15a.41.41,0,0,1-.4.33H28.74v-11A16.34,16.34,0,0,1,45.07,11.48H66.28A5.67,5.67,0,0,1,71.9,16.3,2.24,2.24,0,0,0,73,17.9a8.36,8.36,0,0,1,4.29,7.25V41.79a2.24,2.24,0,0,0,1.11,1.94A3,3,0,0,1,80,46.36a3.07,3.07,0,0,1-3.06,3.06,2.24,2.24,0,0,0-2.24,2.24,21.63,21.63,0,0,1-43.26,0ZM43.13,96.05a.41.41,0,0,1-.57-.07l-8-10,3-4.52,11.82,9.85ZM53,88.51,42,79.33v-4a26.06,26.06,0,0,0,22,0v4ZM63.49,96a.41.41,0,0,1-.57.07l-6.28-4.71,11.82-9.85,3,4.52Z"/><path class="cls-1" d="M45.09,113.05h0a2.23,2.23,0,0,0-2.23,2.24,2.25,2.25,0,1,0,2.25-2.24Z"/><path class="cls-1" d="M45.09,134.26h0a2.23,2.23,0,0,0-2.23,2.24,2.25,2.25,0,1,0,2.25-2.24Z"/><path class="cls-1" d="M45.09,123.66h0a2.23,2.23,0,0,0-2.23,2.24,2.25,2.25,0,1,0,2.25-2.24Z"/></g></svg>