<svg xmlns="http://www.w3.org/2000/svg" viewBox="0 0 72 72"><defs><style>.a{fill:#85ed74;}.b{fill:gray;}</style></defs><title>0</title><path class="a" d="M31.79,67H21.29a2.4,2.4,0,0,1-2.39-2.41v-33A1.74,1.74,0,0,0,16,30.29L9.08,36.37a2.06,2.06,0,0,1-3-.27L2.45,31.52a2.09,2.09,0,0,1,.33-2.93L29.76,7a3.53,3.53,0,0,1,2-1V67Z"/><path class="b" d="M69.17,35.71,33.78,7a3.51,3.51,0,0,0-2-1V67h6.43V49.22A1.77,1.77,0,0,1,40,47.45h9.31a1.77,1.77,0,0,1,1.77,1.78V67h4a2.4,2.4,0,0,0,2.39-2.41V38.86l5.37,4.65a2.22,2.22,0,0,0,3.19-.3l3.47-4.35A2.25,2.25,0,0,0,69.17,35.71Z"/><ellipse class="a" cx="44.42" cy="27.89" rx="4.63" ry="4.66"/></svg>