<svg xmlns="http://www.w3.org/2000/svg" viewBox="0 0 176 156"><defs><style>.cls-1{fill:#f5775b;}</style></defs><title>ic</title><g id="Layer_1" data-name="Layer 1"><path class="cls-1" d="M87.69,80.91,72.16,76.21l-1.69-3.38a2.37,2.37,0,0,0-2.82-1.2V71A27.61,27.61,0,0,0,79.06,50.7,7.88,7.88,0,0,0,83.92,39a9.35,9.35,0,0,0,.62-16.25,8,8,0,0,0-10.75-9.28A24.62,24.62,0,0,0,57.11,7H45.88a24.7,24.7,0,0,0-16.67,6.42A8,8,0,0,0,18.46,22.7,9.35,9.35,0,0,0,19.07,39,7.89,7.89,0,0,0,23.92,50.7,27.61,27.61,0,0,0,35.32,71v.6a2.37,2.37,0,0,0-2.79,1.21L30.83,76.2,14.69,81A10.72,10.72,0,0,0,7,91.37v58.26a2.37,2.37,0,0,0,4.75,0V91.37c0-.17,0-.35,0-.52l9.49,9.48a8.79,8.79,0,0,1,2.59,6.26v43a2.37,2.37,0,0,0,4.75,0v-43a13.5,13.5,0,0,0-4-9.61L14.16,86.54a6.1,6.1,0,0,1,1.9-1l10.69-3.2a63.28,63.28,0,0,0,23.43,29.4,2.37,2.37,0,0,0,2.63,0A62.89,62.89,0,0,0,76.27,82.41l10.05,3a2.37,2.37,0,1,0,1.38-4.54ZM68.35,79.2l-8,10a.41.41,0,0,1-.35.16.42.42,0,0,1-.34-.17L55.1,83.15l12.18-6.09Zm-16.86.45L40.06,73.95v-.16a27.64,27.64,0,0,0,22.83,0V74ZM76.77,17.58a3.23,3.23,0,0,1,2.7,5,2.37,2.37,0,0,0,1.34,3.59,4.65,4.65,0,1,1-4.64,1.32,2.37,2.37,0,0,0-.75-3.76,3.23,3.23,0,0,1,1.35-6.17Zm-58,13.06a4.64,4.64,0,0,1,3.41-4.44,2.37,2.37,0,0,0,1.34-3.59,3.25,3.25,0,1,1,4.05,1.15,2.37,2.37,0,0,0-.75,3.76,4.64,4.64,0,1,1-8.05,3.13Zm9.83,18a2.37,2.37,0,0,0-2.37-2.37,3.44,3.44,0,0,1-3.5-2.68,3.23,3.23,0,0,1,2.48-3.72l.27-.08a9.4,9.4,0,0,0,7.34-9.15,9.26,9.26,0,0,0-1-4.15,7.94,7.94,0,0,0,1.1-10,20,20,0,0,1,13-4.74H57.11a19.92,19.92,0,0,1,13,4.73,7.94,7.94,0,0,0,1.09,10,9.26,9.26,0,0,0-1,4.15,9.4,9.4,0,0,0,7.59,9.21l.22.08a3.23,3.23,0,0,1,2.27,3.67,3.44,3.44,0,0,1-3.5,2.68,2.37,2.37,0,0,0-2.37,2.37,22.9,22.9,0,0,1-45.8,0ZM35,78.57l.75-1.5,12.18,6.09-4.54,6.05a.42.42,0,0,1-.34.17.4.4,0,0,1-.35-.16l-8-9.93A2.38,2.38,0,0,0,35,78.57Zm16.54,28.35A59.43,59.43,0,0,1,32.72,84.4L39,92.18a5.15,5.15,0,0,0,4,1.94h0a5.19,5.19,0,0,0,4.1-2.07l2-2.63.94-1.2a1.82,1.82,0,0,1,2.87,0l.94,1.2,2,2.63a5.19,5.19,0,0,0,4.1,2.07h0a5.15,5.15,0,0,0,4-1.94l6.25-7.8A59.19,59.19,0,0,1,51.49,106.93Z"/><path class="cls-1" d="M58.61,55.22a2.37,2.37,0,0,0-3.34.35,4.66,4.66,0,0,1-7.55,0,2.37,2.37,0,0,0-3.69,3,9.4,9.4,0,0,0,14.92,0A2.37,2.37,0,0,0,58.61,55.22Z"/><path class="cls-1" d="M40.26,40.66A2.37,2.37,0,0,0,37.89,43v2.81a2.37,2.37,0,0,0,4.75,0V43A2.37,2.37,0,0,0,40.26,40.66Z"/><path class="cls-1" d="M62.73,40.66A2.37,2.37,0,0,0,60.35,43v2.81a2.37,2.37,0,0,0,4.75,0V43A2.37,2.37,0,0,0,62.73,40.66Z"/><path class="cls-1" d="M86.87,91.85a2.37,2.37,0,0,0-3.36,0L78.38,97a13.5,13.5,0,0,0-4,9.61v43a2.37,2.37,0,0,0,4.75,0v-43a8.79,8.79,0,0,1,2.59-6.26l5.13-5.13A2.37,2.37,0,0,0,86.87,91.85Z"/><path class="cls-1" d="M134.42,74.85a2.37,2.37,0,0,0-3.34.35,4.66,4.66,0,0,1-7.55,0,2.37,2.37,0,0,0-3.69,3,9.4,9.4,0,0,0,14.92,0A2.37,2.37,0,0,0,134.42,74.85Z"/><path class="cls-1" d="M102,116.4a2.37,2.37,0,0,0-2.37,2.37v30.86a2.37,2.37,0,0,0,4.75,0V118.77A2.37,2.37,0,0,0,102,116.4Z"/><path class="cls-1" d="M152.59,116.4a2.37,2.37,0,0,0-2.37,2.37v30.86a2.37,2.37,0,0,0,4.75,0V118.77A2.37,2.37,0,0,0,152.59,116.4Z"/><path class="cls-1" d="M161.07,100.2a10.74,10.74,0,0,0-3.31-16.11q0-.19,0-.39a9.36,9.36,0,0,0-3.93-7.64c.16-.55.31-1.1.44-1.65a26.55,26.55,0,0,0,.6-4.35,33.26,33.26,0,1,0-55.11,0,26.54,26.54,0,0,0,.6,4.35c.13.56.28,1.11.44,1.65a9.36,9.36,0,0,0-3.93,7.64q0,.19,0,.39a10.74,10.74,0,0,0-3.31,16.11,16.3,16.3,0,0,0-7.93,14v35.39a2.37,2.37,0,0,0,4.75,0V114.24a11.6,11.6,0,0,1,7.33-10.82l.45-.18,4.58-1.83,6.16-2.46a24.85,24.85,0,0,0,36.84,0l6.16,2.46,4.57,1.83.46.18a11.6,11.6,0,0,1,7.33,10.82v35.39a2.37,2.37,0,0,0,4.75,0V114.24A16.3,16.3,0,0,0,161.07,100.2Zm-49.4-7.47L98.14,98.14a6,6,0,0,1,2.09-10.34,2.37,2.37,0,0,0,1.57-2.88,4.43,4.43,0,0,1,.86-4.15,27.79,27.79,0,0,0,7.29,9,27.34,27.34,0,0,0,3,2.08A3.23,3.23,0,0,1,111.67,92.73Zm15.64,9.64A20,20,0,0,1,113.67,97,7.94,7.94,0,0,0,117.22,94a27.57,27.57,0,0,0,20.18,0A7.94,7.94,0,0,0,141,97,20,20,0,0,1,127.31,102.37Zm0-11.22a22.66,22.66,0,0,1-14.38-5.07,22.38,22.38,0,0,1-8.47-17,2.36,2.36,0,0,0-.7-1.6,28.51,28.51,0,1,1,49.67-4.6c-3.42-7.35-11-9.41-18.41-11.41-6-1.62-12.16-3.29-17.45-7.52a2.37,2.37,0,0,0-3.6.79,18.46,18.46,0,0,1-7.36,7.36,2.37,2.37,0,1,0,2.12,4.24,22.45,22.45,0,0,0,8-7.11c5.53,3.71,11.6,5.35,17,6.82,1.78.48,3.42.94,4.92,1.42h-.16a8,8,0,0,0-6.83,3.85,9.81,9.81,0,0,0-8.8,0,8,8,0,1,0,1.11,5,4.77,4.77,0,0,1,6.59,0A8,8,0,1,0,144,59.63c3.39,1.85,5.48,4.43,6.25,9a2.4,2.4,0,0,0-.07.49,22.83,22.83,0,0,1-22.85,22Zm14.48-25.68a3.24,3.24,0,1,1-3.24-3.24A3.25,3.25,0,0,1,141.79,65.47Zm-22.46,0a3.24,3.24,0,1,1-3.24-3.24A3.25,3.25,0,0,1,119.32,65.47Zm37.17,32.67L143,92.73a3.23,3.23,0,0,1-1.24-.88,27.42,27.42,0,0,0,3-2.08,27.79,27.79,0,0,0,7.29-9,4.43,4.43,0,0,1,.86,4.15,2.37,2.37,0,0,0,1.57,2.88,6,6,0,0,1,2.09,10.34Z"/></g></svg>