<svg xmlns="http://www.w3.org/2000/svg" viewBox="0 0 176 156"><defs><style>.cls-1{fill:#f5775b;}.cls-2{fill:none;}</style></defs><title>ic</title><g id="Layer_1" data-name="Layer 1"><path class="cls-1" d="M59.74,57.88a2.24,2.24,0,0,0-3.15.33,4.4,4.4,0,0,1-7.13,0A2.24,2.24,0,0,0,46,61a8.87,8.87,0,0,0,14.09,0A2.24,2.24,0,0,0,59.74,57.88Z"/><path class="cls-1" d="M42.41,44.12a2.24,2.24,0,0,0-2.24,2.24V49a2.24,2.24,0,0,0,4.48,0V46.36A2.24,2.24,0,0,0,42.41,44.12Z"/><path class="cls-1" d="M63.63,44.12a2.24,2.24,0,0,0-2.24,2.24V49a2.24,2.24,0,0,0,4.48,0V46.36A2.24,2.24,0,0,0,63.63,44.12Z"/><path class="cls-1" d="M131.35,71.13a2.24,2.24,0,0,0-3.15.33,4.4,4.4,0,0,1-7.13,0,2.24,2.24,0,0,0-3.48,2.82,8.87,8.87,0,0,0,14.09,0A2.24,2.24,0,0,0,131.35,71.13Z"/><path class="cls-1" d="M114,57.37a2.24,2.24,0,0,0-2.24,2.24v2.65a2.24,2.24,0,0,0,4.48,0V59.62A2.24,2.24,0,0,0,114,57.37Z"/><path class="cls-1" d="M135.24,57.37A2.24,2.24,0,0,0,133,59.62v2.65a2.24,2.24,0,0,0,4.48,0V59.62A2.24,2.24,0,0,0,135.24,57.37Z"/><path class="cls-1" d="M157.59,103.26,139.4,96a3.11,3.11,0,0,1-.44-.22C151.28,93.29,157,91,157.3,90.85a2.24,2.24,0,0,0,1.37-2.35A377.4,377.4,0,0,1,156,49a31.41,31.41,0,0,0-62.83,0A377.63,377.63,0,0,1,90.58,88.5,2.24,2.24,0,0,0,92,90.85c.26.1,6,2.43,18.34,4.91a3.11,3.11,0,0,1-.44.22l-18.19,7.27a10.15,10.15,0,0,0-6.41,9.47v5.63H79.13V107.87L84.2,97.74a2.24,2.24,0,0,0-4-2l-5.3,10.61a2.24,2.24,0,0,0-.24,1v42.42a2.24,2.24,0,0,0,4.48,0V122.84h6.13v3.06a2.24,2.24,0,0,0,2.24,2.24h.41v21.62a2.24,2.24,0,0,0,4.48,0V128.14h6.13v21.62a2.24,2.24,0,0,0,4.48,0V120.6a2.24,2.24,0,0,0-4.48,0v3.06H89.74V112.72a5.69,5.69,0,0,1,3.59-5.3l8.94-3.57a23.46,23.46,0,0,0,44.71,0l8.94,3.57a5.69,5.69,0,0,1,3.59,5.3v10.93h-8.78V120.6a2.24,2.24,0,0,0-4.48,0v29.16a2.24,2.24,0,0,0,4.48,0V128.14h6.13v21.62a2.24,2.24,0,0,0,4.48,0V128.14h.41A2.24,2.24,0,0,0,164,125.9V112.72A10.15,10.15,0,0,0,157.59,103.26ZM97.7,49a26.93,26.93,0,0,1,53.86,0A374.68,374.68,0,0,0,154,87.28a133.27,133.27,0,0,1-16.54,4.22V87.64A25.88,25.88,0,0,0,141,85.23a26,26,0,0,0,9.71-20.31c0-13.05-9.46-14.93-18.6-16.74-5.85-1.16-11.9-2.36-16.72-6.22a2.24,2.24,0,0,0-3.4.74,26.27,26.27,0,0,1-3.39,4.9c-1.8,2-4.62,4.47-7.87,4.47a7.5,7.5,0,0,0-3.1.67C97.69,51.49,97.7,50.24,97.7,49Zm26.93,37.53A21.39,21.39,0,0,1,111,81.74a21.55,21.55,0,0,1-8-16.82,2.24,2.24,0,0,0-2.24-2.24,3.06,3.06,0,1,1,0-6.12c6.8,0,11.73-6.15,14-9.59,5.23,3.36,11.2,4.55,16.55,5.61,9.85,2,15,3.39,15,12.35a21.55,21.55,0,0,1-8,16.82A21.39,21.39,0,0,1,124.63,86.54Zm-29.39.74c.4-3.48,1.27-11.65,1.86-21.07a7.51,7.51,0,0,0,1.49.64,26.06,26.06,0,0,0,13.19,20.8v3.86A133.23,133.23,0,0,1,95.24,87.28Zm29.39,28.43a19,19,0,0,1-18.18-13.53l5.07-2a7.51,7.51,0,0,0,4.74-7V89.63a26,26,0,0,0,16.73,0v3.51a7.51,7.51,0,0,0,4.74,7l5.07,2A19,19,0,0,1,124.63,115.7Z"/><path class="cls-2" d="M42,75.32v5.53a11,11,0,0,0,22,0V75.32a26.06,26.06,0,0,1-22,0Z"/><path class="cls-2" d="M76.89,49.42A3.07,3.07,0,0,0,80,46.36a3,3,0,0,0-1.54-2.63,2.24,2.24,0,0,1-1.11-1.94V25.15A8.36,8.36,0,0,0,73,17.9a2.24,2.24,0,0,1-1.11-1.6,5.67,5.67,0,0,0-5.62-4.82H45.07A16.34,16.34,0,0,0,28.74,27.8v11h3.8a.41.41,0,0,0,.39-.28l2-6.14a2.24,2.24,0,0,1,2.13-1.53c.21,0,20.82-.06,30.82-5.07a2.24,2.24,0,1,1,2,4c-9.33,4.66-25.94,5.4-31.2,5.52L37.19,40a4.89,4.89,0,0,1-4.64,3.34H29.15a3.06,3.06,0,0,0-1.38.34l-.14.1a3,3,0,0,0-1.54,2.63,3.07,3.07,0,0,0,3.06,3.06,2.24,2.24,0,0,1,2.24,2.24,21.63,21.63,0,0,0,43.26,0A2.24,2.24,0,0,1,76.89,49.42Z"/><path class="cls-1" d="M84.61,84,68.52,79.16V72.64A26.09,26.09,0,0,0,79.06,53.58a7.52,7.52,0,0,0,2.72-12.94V25.15a12.83,12.83,0,0,0-5.68-10.6A10.13,10.13,0,0,0,66.28,7H45.07A20.83,20.83,0,0,0,24.26,27.8V40.65A7.52,7.52,0,0,0,27,53.58,26.09,26.09,0,0,0,37.52,72.64v6.51L18.27,84.93A10.13,10.13,0,0,0,11,94.7v25.9a2.24,2.24,0,0,0,2.24,2.24h.41v26.92a2.24,2.24,0,0,0,4.48,0V122.84h8.78v26.92a2.24,2.24,0,0,0,4.48,0V107.34a2.24,2.24,0,0,0-.24-1l-5.3-10.61a2.24,2.24,0,0,0-4,2l5.07,10.13v10.49H15.48V94.7a5.68,5.68,0,0,1,4.07-5.47L37.8,83.75a15.5,15.5,0,0,0,30.44,0l15.08,4.52A2.24,2.24,0,1,0,84.61,84ZM64,80.83a11,11,0,0,1-22,0V75.32a26.06,26.06,0,0,0,22,0ZM53,73.28A21.65,21.65,0,0,1,31.4,51.66a2.24,2.24,0,0,0-2.24-2.24,3.07,3.07,0,0,1-3.06-3.06,3,3,0,0,1,1.54-2.63l.14-.1a3.06,3.06,0,0,1,1.38-.34h3.39A4.89,4.89,0,0,0,37.19,40l1.54-4.63c5.27-.12,21.87-.85,31.2-5.52a2.24,2.24,0,1,0-2-4c-10,5-30.62,5.07-30.82,5.07A2.24,2.24,0,0,0,35,32.39l-2,6.14a.41.41,0,0,1-.39.28h-3.8v-11A16.34,16.34,0,0,1,45.07,11.48H66.28A5.67,5.67,0,0,1,71.9,16.3,2.24,2.24,0,0,0,73,17.9a8.36,8.36,0,0,1,4.29,7.25V41.79a2.24,2.24,0,0,0,1.11,1.94A3,3,0,0,1,80,46.36a3.07,3.07,0,0,1-3.06,3.06,2.24,2.24,0,0,0-2.24,2.24A21.65,21.65,0,0,1,53,73.28Z"/></g></svg>