<svg xmlns="http://www.w3.org/2000/svg" viewBox="0 0 680 740"><defs><style>.a{fill:#727272;}.b{fill:#f5775b;}</style></defs><title>map_floripa</title><path class="a" d="M375.6,330.79h-2.46v-5q1.22.07,2.46.08a2.17,2.17,0,1,0,0-4.33c-16.65,0-30.19-11.47-30.19-25.57V289a2.17,2.17,0,0,0-4.33,0V296c0,14.1-13.54,25.57-30.19,25.57S280.69,310.07,280.69,296V289a2.17,2.17,0,0,0-4.33,0V296c0,14.1-13.54,25.57-30.19,25.57a2.17,2.17,0,1,0,0,4.33q1.24,0,2.46-.08v5h-2.46a2.17,2.17,0,0,0,0,4.33H375.6a2.17,2.17,0,0,0,0-4.33Zm-6.79,0H363.9v-6.68a38.42,38.42,0,0,0,4.91,1.19Zm-9.25,0h-4.91V319.73a35.72,35.72,0,0,0,4.91,2.72v8.34Zm-9.25-14.47v14.47h-4.91V310.46a30.67,30.67,0,0,0,4.91,5.85Zm-9.25-5.85v20.32h-4.91V316.31A30.67,30.67,0,0,0,341.08,310.46Zm-14.16,12a35.69,35.69,0,0,0,4.91-2.72v11.06h-4.91v-8.34Zm-4.33,8.34h-4.91v-5.49a38.42,38.42,0,0,0,4.91-1.19v6.68Zm-9.25-5v5h-4.91v-5q1.22.07,2.46.08T313.34,325.8Zm-14.16-1.69a38.42,38.42,0,0,0,4.91,1.19v5.49h-4.91v-6.68Zm-4.33,6.68h-4.91V319.73a35.72,35.72,0,0,0,4.91,2.72v8.34Zm-9.25-14.47v14.47h-4.91V310.46a30.67,30.67,0,0,0,4.91,5.85Zm-9.25-5.85v20.32h-4.91V316.31A30.67,30.67,0,0,0,276.36,310.46Zm-9.25,20.32H262.2v-8.34a35.69,35.69,0,0,0,4.91-2.72v11.06ZM253,325.29a38.42,38.42,0,0,0,4.91-1.19v6.68H253Z"/><path class="a" d="M375.6,344.37a2.17,2.17,0,0,0,0-4.33H246.17a2.17,2.17,0,0,0,0,4.33h30.19v4.91h-.14a4.48,4.48,0,0,0-4.48,4.48v4.77H246.17a2.17,2.17,0,1,0,0,4.33H375.6a2.17,2.17,0,1,0,0-4.33H350v-4.77a4.48,4.48,0,0,0-4.48-4.48h-.14v-4.91Zm-99.53,9.39a.14.14,0,0,1,.14-.14h4.62a.14.14,0,0,1,.14.14v4.77h-4.91Zm69.63,0v4.77h-4.91v-4.77a.14.14,0,0,1,.14-.14h4.62A.14.14,0,0,1,345.7,353.76Zm-4.62-4.48h-.14a4.48,4.48,0,0,0-4.48,4.48v4.77H285.32v-4.77a4.48,4.48,0,0,0-4.48-4.48h-.14v-4.91h60.38Z"/><path class="a" d="M334,367.77h-41.6a2.17,2.17,0,1,0,0,4.33H334a2.17,2.17,0,0,0,0-4.33Z"/><path class="a" d="M283.15,367.77H264.66a2.17,2.17,0,1,0,0,4.33h18.49a2.17,2.17,0,0,0,0-4.33Z"/><path class="a" d="M347.87,367.77h-4.62a2.17,2.17,0,0,0,0,4.33h4.62a2.17,2.17,0,0,0,0-4.33Z"/><path class="a" d="M329.38,377H306.26a2.17,2.17,0,0,0,0,4.33h23.11a2.17,2.17,0,0,0,0-4.33Z"/><path class="a" d="M297,377h-4.62a2.17,2.17,0,0,0,0,4.33H297a2.17,2.17,0,0,0,0-4.33Z"/><path class="a" d="M378.59,677.5a6,6,0,0,1-3.28-1l-19.88-13A6,6,0,0,1,352.9,657l15.2-58.86-19-39a6,6,0,0,1-.08-5.07l32.52-72.79L361,460.48a6,6,0,0,1-1-7.14l33.18-59.46a6,6,0,0,1,5.24-3.08h17.92V376.62l-37.79-32a6,6,0,0,1-2.12-4.58V321a6,6,0,0,1,1.64-4.12l45.42-48L404.22,134.25a6,6,0,0,1,3-6.06L576,31.79A6,6,0,0,1,583.46,33l79.34,87.56a6,6,0,0,1,.54,7.37L578,255.2l8.88,54.11a6,6,0,0,1-.35,3.2l-11.93,29.79a6,6,0,0,1-1.1,1.77L532.8,389.65,463.94,533.74l40.44,25.16a6,6,0,0,1,1.88,8.34l-26,40.5a6,6,0,0,1-8.26,1.82l-27.1-17.2-17.82,13.26-9.34,51.93a6,6,0,0,1-3.44,4.41l-33.23,15A6,6,0,0,1,378.59,677.5Zm-13-21.67,13.53,8.84,27.36-12.35,9.2-51.16a6,6,0,0,1,2.32-3.75l23-17.15a6,6,0,0,1,6.8-.25l25.54,16.21,19.49-30.36L453,541.09a6,6,0,0,1-2.24-7.68L522.35,383.7a6,6,0,0,1,.94-1.41l40.58-45.43,10.92-27.26-9-54.8a6,6,0,0,1,.94-4.31l84-125.38-73-80.52-161.13,92L435.81,270a6,6,0,0,1-1.58,5l-45.77,48.37v13.94l37.79,32a6,6,0,0,1,2.13,4.58v23a6,6,0,0,1-6,6H402l-29.27,52.45L393,475.78a6,6,0,0,1,1.21,6.66l-33.05,74,18.72,38.45a6,6,0,0,1,.42,4.13Z"/><path class="a" d="M26.4,729.88a7.89,7.89,0,0,1-3.73-.93c-1.41-.76-4.64-3.15-4.21-8.88L70.57,21.54c.29-3.95,2.26-6.92,5.38-8.17s6.6-.43,9.52,2.24L184.61,106a15.79,15.79,0,0,1,4,16.15l-22.46,62.7a12.73,12.73,0,0,0,.12,7l30.08,75.84a21.2,21.2,0,0,0,5.07,6.87l41.65,33.48A20,20,0,0,1,250,322.5v14A22.33,22.33,0,0,1,244,351l-8.66,8.56a18.81,18.81,0,0,1-15.46,4.79l-38-6.87a4,4,0,0,0-3.08,1.33L159.3,388.74a11.38,11.38,0,0,0-1.25,6.48l23.66,119.23a38.94,38.94,0,0,1-.24,14.26L170.21,577a58.28,58.28,0,0,1-4.85,12.63l-31.2,56.5a39.91,39.91,0,0,1-9.27,10.76L32.41,727.62A9.81,9.81,0,0,1,26.4,729.88Zm4-8.81h0ZM82.07,28.74,31,713.61l86.61-66.23a28.38,28.38,0,0,0,6.06-7l31.2-56.5a46.5,46.5,0,0,0,3.67-9.56L169.79,526a27.34,27.34,0,0,0,.15-9.2L146.28,397.55a22.82,22.82,0,0,1,3-15.35l19.46-29.94a15.81,15.81,0,0,1,15.27-6.6l38,6.87a7.22,7.22,0,0,0,4.88-1.51l8.66-8.56a10.84,10.84,0,0,0,2.49-6v-14a8.47,8.47,0,0,0-2.44-5.08l-41.65-33.48a32.9,32.9,0,0,1-8.71-11.8l-30.08-75.84a24.21,24.21,0,0,1-.26-15.46l22.46-62.7a4,4,0,0,0-.81-3.24ZM76.55,22h0Z"/><circle class="b" cx="432.59" cy="327.62" r="8.38"/><path class="b" d="M432.59,346.25a18.63,18.63,0,1,1,18.63-18.62A18.65,18.65,0,0,1,432.59,346.25Zm0-33.25a14.63,14.63,0,1,0,14.63,14.63A14.64,14.64,0,0,0,432.59,313Z"/><circle class="b" cx="535.59" cy="311" r="8.38"/><path class="b" d="M535.59,329.62A18.63,18.63,0,1,1,554.21,311,18.65,18.65,0,0,1,535.59,329.62Zm0-33.25A14.63,14.63,0,1,0,550.21,311,14.64,14.64,0,0,0,535.59,296.37Z"/><circle class="b" cx="412.88" cy="539.83" r="8.38"/><path class="b" d="M412.88,558.46a18.63,18.63,0,1,1,18.63-18.62A18.65,18.65,0,0,1,412.88,558.46Zm0-33.25a14.63,14.63,0,1,0,14.63,14.63A14.64,14.64,0,0,0,412.88,525.21Z"/><circle class="b" cx="121.55" cy="311" r="8.38"/><path class="b" d="M121.55,329.62A18.63,18.63,0,1,1,140.17,311,18.65,18.65,0,0,1,121.55,329.62Zm0-33.25A14.63,14.63,0,1,0,136.17,311,14.64,14.64,0,0,0,121.55,296.37Z"/><circle class="b" cx="530.96" cy="157.17" r="8.38"/><path class="b" d="M531,175.79a18.63,18.63,0,1,1,18.63-18.62A18.65,18.65,0,0,1,531,175.79Zm0-33.25a14.63,14.63,0,1,0,14.63,14.63A14.64,14.64,0,0,0,531,142.54Z"/></svg>