<svg xmlns="http://www.w3.org/2000/svg" viewBox="0 0 305.5 108.31"><defs><style>.a{fill:#fff;}.b{fill:#f5775b;}.c{fill:#595959;}.d{fill:#333;}</style></defs><title>0</title><circle class="a" cx="57.21" cy="54.15" r="51"/><path class="b" d="M52.87,84H41.66a2.57,2.57,0,0,1-2.56-2.58V46.07A1.86,1.86,0,0,0,36,44.65l-7.41,6.51a2.2,2.2,0,0,1-3.18-.29L21.54,46a2.25,2.25,0,0,1,.35-3.14L50.71,19.67a3.77,3.77,0,0,1,2.16-1.05V84Z"/><path class="c" d="M92.82,50.46,55,19.66a3.75,3.75,0,0,0-2.13-1V84h6.87V64.95A1.9,1.9,0,0,1,61.63,63h10a1.9,1.9,0,0,1,1.89,1.91V84h4.31a2.57,2.57,0,0,0,2.56-2.58V53.84l5.73,5a2.36,2.36,0,0,0,3.41-.32l3.7-4.67A2.42,2.42,0,0,0,92.82,50.46Z"/><ellipse class="b" cx="66.37" cy="42.08" rx="4.95" ry="4.99"/><path class="d" d="M128.86,45.19V27.25q2.31-.23,6.5-.23,3.54,0,4.85,1.21t1.31,4.56q0,3.35-1.25,4.56t-4.5,1.21a30.93,30.93,0,0,1-3.67-.21v6.84Zm3.25-9.28h3.17a3.34,3.34,0,0,0,2.34-.66,3.57,3.57,0,0,0,.62-2.46,3.57,3.57,0,0,0-.62-2.46,3.27,3.27,0,0,0-2.34-.64h-3.17Z"/><path class="d" d="M147.45,27V41.21a1.41,1.41,0,0,0,.35,1.12,1.61,1.61,0,0,0,1.16.36h1.09l.36,2.34a6.32,6.32,0,0,1-2.7.44,3.42,3.42,0,0,1-2.51-.91,3.45,3.45,0,0,1-.92-2.57V27Z"/><path class="d" d="M152.65,34.94l-.31-2.24a34.85,34.85,0,0,1,6.37-.62,5.51,5.51,0,0,1,3.63,1,4.36,4.36,0,0,1,1.16,3.46v8.66H161l-.34-2a6.29,6.29,0,0,1-4.86,2.24,4.27,4.27,0,0,1-2.91-1,3.41,3.41,0,0,1-1.12-2.72v-1.3a2.92,2.92,0,0,1,1-2.37,4.19,4.19,0,0,1,2.78-.83h4.78V36.5a1.84,1.84,0,0,0-.49-1.46,3.24,3.24,0,0,0-1.85-.36Q156,34.68,152.65,34.94Zm2.26,5.93v.49q0,1.56,1.66,1.56a5.9,5.9,0,0,0,3.74-1.51v-2h-4.06a1.36,1.36,0,0,0-1.05.39A1.59,1.59,0,0,0,154.92,40.87Z"/><path class="d" d="M169.58,32.45l.21,1.87a9.38,9.38,0,0,1,5.51-2.24,3.18,3.18,0,0,1,3.51,3.54v9.57h-3.17V36.58a2.55,2.55,0,0,0-.29-1.44,1.27,1.27,0,0,0-1.07-.38,4.9,4.9,0,0,0-1.81.36,19.53,19.53,0,0,0-2.38,1.2v8.87h-3.17V32.45Z"/><path class="d" d="M190.25,40.14H185a3.08,3.08,0,0,0,.94,2.22,4.22,4.22,0,0,0,2.47.56,39.46,39.46,0,0,0,4.58-.31l.29,2a12.6,12.6,0,0,1-5.25.86q-3.46,0-4.91-1.53t-1.46-5.17q0-3.72,1.43-5.21t4.73-1.5a7.08,7.08,0,0,1,4.42,1.1,4,4,0,0,1,1.38,3.31Q193.66,40.14,190.25,40.14ZM185,37.93h4.37q1.14,0,1.14-1.48A1.72,1.72,0,0,0,190,35a3.41,3.41,0,0,0-2-.42,3.07,3.07,0,0,0-2.3.69A4.21,4.21,0,0,0,185,37.93Z"/><path class="d" d="M199.82,32.45V45a6.59,6.59,0,0,1-.78,3.13,5.89,5.89,0,0,1-2.13,2.3L195.14,49A6.13,6.13,0,0,0,196.65,45V32.45Zm-2.31-5.56H199a.8.8,0,0,1,.91.91v1.4a.8.8,0,0,1-.91.91H197.5a.8.8,0,0,1-.91-.91v-1.4A.8.8,0,0,1,197.5,26.88Z"/><path class="d" d="M203.69,34.94l-.31-2.24a34.85,34.85,0,0,1,6.37-.62,5.51,5.51,0,0,1,3.63,1,4.36,4.36,0,0,1,1.16,3.46v8.66H212l-.34-2a6.29,6.29,0,0,1-4.86,2.24,4.27,4.27,0,0,1-2.91-1,3.41,3.41,0,0,1-1.12-2.72v-1.3a2.92,2.92,0,0,1,1-2.37,4.19,4.19,0,0,1,2.78-.83h4.78V36.5a1.84,1.84,0,0,0-.49-1.46,3.24,3.24,0,0,0-1.85-.36Q207,34.68,203.69,34.94ZM206,40.87v.49q0,1.56,1.66,1.56a5.9,5.9,0,0,0,3.74-1.51v-2h-4.06a1.36,1.36,0,0,0-1.05.39A1.59,1.59,0,0,0,206,40.87Z"/><path class="d" d="M226.6,32.08l-.34,3h-.91a13,13,0,0,0-4.21,1.14v9H218V32.45h2.47l.29,1.87A8.42,8.42,0,0,1,226,32.08Z"/><path class="d" d="M143.11,59.25h3.35a1.16,1.16,0,0,1,1.27,1.27l.73,16.67h-3.2l-.6-15.31h-.49l-3.09,11.93a1.29,1.29,0,0,1-1.35,1.09h-2.5a1.31,1.31,0,0,1-1.38-1.09l-3.15-11.93h-.44l-.57,15.31h-3.17l.68-16.67a1.16,1.16,0,0,1,1.27-1.27h3.38a1.26,1.26,0,0,1,1.33,1.09l2.55,9.72q.05.18.55,2.44h.39Q139,71,139.21,70l2.55-9.7A1.29,1.29,0,0,1,143.11,59.25Z"/><path class="d" d="M159.86,72.14h-5.2a3.08,3.08,0,0,0,.94,2.22,4.22,4.22,0,0,0,2.47.56,39.46,39.46,0,0,0,4.58-.31l.29,2a12.6,12.6,0,0,1-5.25.86q-3.46,0-4.91-1.53t-1.46-5.17q0-3.72,1.43-5.21t4.73-1.5a7.08,7.08,0,0,1,4.42,1.1,4,4,0,0,1,1.38,3.31Q163.26,72.14,159.86,72.14Zm-5.25-2.21H159q1.14,0,1.14-1.48a1.72,1.72,0,0,0-.55-1.46,3.41,3.41,0,0,0-2-.42,3.07,3.07,0,0,0-2.3.69A4.21,4.21,0,0,0,154.6,69.93Z"/><path class="d" d="M177.64,64.45V77.19h-2.5l-.23-1.72a8.83,8.83,0,0,1-5.33,2.05Q166,77.52,166,74V64.45h3.17v8.61a2.1,2.1,0,0,0,.31,1.4,1.61,1.61,0,0,0,1.25.39,8.4,8.4,0,0,0,3.72-1.4v-9Z"/><path class="b" d="M193.24,77.19H190V64a10.51,10.51,0,0,1,.13-1.77l-4.21,1.2-.39-2.31L190,59.25h3.25Z"/><path class="b" d="M200.27,60.89a3.73,3.73,0,0,1,2.83.89,4.44,4.44,0,0,1,.83,3,4.41,4.41,0,0,1-.83,3,3.75,3.75,0,0,1-2.83.89,3.8,3.8,0,0,1-2.85-.89,4.37,4.37,0,0,1-.83-3,4.4,4.4,0,0,1,.83-3A3.77,3.77,0,0,1,200.27,60.89Zm0,1.47a1.62,1.62,0,0,0-1.39.51,3.61,3.61,0,0,0-.36,1.95,3.57,3.57,0,0,0,.36,1.93,2.14,2.14,0,0,0,2.77,0,3.52,3.52,0,0,0,.37-1.93,3.56,3.56,0,0,0-.37-1.95A1.6,1.6,0,0,0,200.27,62.36Z"/><path class="b" d="M215.59,77.19h-3.25V59.25h3.25Z"/><path class="b" d="M221.94,64.45l.18,1.87a7.68,7.68,0,0,1,5-2.24,3,3,0,0,1,3.25,2.13,7.29,7.29,0,0,1,4.84-2.13,3.43,3.43,0,0,1,2.57.91,3.62,3.62,0,0,1,.88,2.63v9.57h-3.09V68.58a2.36,2.36,0,0,0-.36-1.4,1.5,1.5,0,0,0-1.22-.42,3.29,3.29,0,0,0-1.42.31,17.38,17.38,0,0,0-2,1.22v8.89h-3V68.58a2,2,0,0,0-.35-1.42,1.63,1.63,0,0,0-1.23-.4,3.31,3.31,0,0,0-1.4.31,16.69,16.69,0,0,0-2,1.2v8.92h-3.15V64.45Z"/><path class="b" d="M247.86,64.08q3.43,0,4.85,1.53t1.42,5.2q0,3.67-1.42,5.19t-4.85,1.52q-3.46,0-4.89-1.52t-1.43-5.19q0-3.67,1.43-5.2T247.86,64.08Zm0,2.52a2.77,2.77,0,0,0-2.39.87,6.2,6.2,0,0,0-.62,3.34,6.13,6.13,0,0,0,.62,3.31,2.77,2.77,0,0,0,2.39.87,2.74,2.74,0,0,0,2.35-.87,6,6,0,0,0,.64-3.31,6.09,6.09,0,0,0-.64-3.34A2.74,2.74,0,0,0,247.86,66.6Zm4.52-6.47L246.84,63l-1-1.4,4.89-3.82Z"/><path class="b" d="M269,64.45l-4.37,12a1.06,1.06,0,0,1-1.07.75h-2.76a1,1,0,0,1-1-.75l-4.37-12h3.33l2.65,8.4q.57,2,.62,2.21h.34l.68-2.21,2.63-8.4Z"/><path class="b" d="M278.85,72.14h-5.2a3.08,3.08,0,0,0,.94,2.22,4.22,4.22,0,0,0,2.47.56,39.46,39.46,0,0,0,4.58-.31l.29,2a12.6,12.6,0,0,1-5.25.86q-3.46,0-4.91-1.53t-1.46-5.17q0-3.72,1.43-5.21t4.73-1.5a7.08,7.08,0,0,1,4.42,1.1,4,4,0,0,1,1.38,3.31Q282.26,72.14,278.85,72.14Zm-5.25-2.21H278q1.14,0,1.14-1.48a1.72,1.72,0,0,0-.55-1.46,3.41,3.41,0,0,0-2-.42,3.07,3.07,0,0,0-2.3.69A4.21,4.21,0,0,0,273.6,69.93Z"/><path class="b" d="M288.31,59V73.21a1.41,1.41,0,0,0,.35,1.12,1.61,1.61,0,0,0,1.16.36h1.09l.36,2.34a6.32,6.32,0,0,1-2.7.44,3.42,3.42,0,0,1-2.51-.91,3.45,3.45,0,0,1-.92-2.57V59Z"/></svg>