<svg xmlns="http://www.w3.org/2000/svg" viewBox="0 0 360 108"><defs><style>.cls-1{fill:#fff;}.cls-2{fill:#f5775b;}.cls-3{fill:#595959;}.cls-4{fill:#333;}</style></defs><title>0</title><g id="Layer_1" data-name="Layer 1"><circle class="cls-1" cx="57.71" cy="54" r="51"/><path class="cls-2" d="M53.37,83.85H42.16a2.57,2.57,0,0,1-2.56-2.58V45.92a1.86,1.86,0,0,0-3.08-1.42L29.11,51a2.2,2.2,0,0,1-3.18-.29L22,45.82a2.25,2.25,0,0,1,.35-3.14L51.21,19.51a3.77,3.77,0,0,1,2.16-1.05V83.85Z"/><path class="cls-3" d="M93.32,50.31,55.5,19.51a3.75,3.75,0,0,0-2.13-1V83.85H78.28a2.57,2.57,0,0,0,2.56-2.58V53.68l5.73,5A2.36,2.36,0,0,0,90,58.34l3.7-4.67A2.42,2.42,0,0,0,93.32,50.31Z"/><path class="cls-4" d="M147.36,40.56h4.13a1.42,1.42,0,0,1,1.57,1.57l.9,20.51H150l-.74-18.85h-.61l-3.81,14.69a1.59,1.59,0,0,1-1.66,1.34h-3.07a1.61,1.61,0,0,1-1.7-1.34L134.56,43.8H134l-.7,18.85h-3.9l.83-20.51a1.42,1.42,0,0,1,1.57-1.57H136a1.55,1.55,0,0,1,1.63,1.34l3.14,12q.06.22.67,3h.48q.35-1.86.67-3l3.14-11.94A1.59,1.59,0,0,1,147.36,40.56Z"/><path class="cls-4" d="M168,56.44h-6.4a3.79,3.79,0,0,0,1.15,2.74,5.19,5.19,0,0,0,3,.69,48.6,48.6,0,0,0,5.63-.38l.35,2.5A15.5,15.5,0,0,1,165.28,63q-4.26,0-6-1.89t-1.79-6.37q0-4.58,1.76-6.42T165,46.52q3.74,0,5.44,1.36a4.92,4.92,0,0,1,1.7,4.08Q172.16,56.44,168,56.44Zm-6.46-2.72h5.38q1.41,0,1.41-1.82a2.12,2.12,0,0,0-.67-1.79,4.21,4.21,0,0,0-2.43-.51,3.78,3.78,0,0,0-2.83.85A5.18,5.18,0,0,0,161.51,53.72Z"/><path class="cls-4" d="M189.86,47V62.64h-3.07l-.29-2.11a10.87,10.87,0,0,1-6.56,2.53q-4.35,0-4.35-4.35V47h3.9V57.56a2.59,2.59,0,0,0,.38,1.73,2,2,0,0,0,1.54.48A10.34,10.34,0,0,0,186,58V47Z"/><path class="cls-2" d="M209.06,62.64h-4V46.36a13,13,0,0,1,.16-2.18L200,45.65l-.48-2.85,5.5-2.24h4Z"/><path class="cls-2" d="M217.71,42.58a4.58,4.58,0,0,1,3.48,1.1,5.46,5.46,0,0,1,1,3.73,5.42,5.42,0,0,1-1,3.72,4.61,4.61,0,0,1-3.48,1.09,4.67,4.67,0,0,1-3.51-1.09,5.39,5.39,0,0,1-1-3.72,5.42,5.42,0,0,1,1-3.73A4.65,4.65,0,0,1,217.71,42.58Zm0,1.81A2,2,0,0,0,216,45a4.45,4.45,0,0,0-.45,2.4A4.41,4.41,0,0,0,216,49.8a2,2,0,0,0,1.72.63,2,2,0,0,0,1.69-.62,4.33,4.33,0,0,0,.46-2.38,4.37,4.37,0,0,0-.46-2.4A2,2,0,0,0,217.71,44.39Z"/><path class="cls-2" d="M236.57,62.64h-4V40.56h4Z"/><path class="cls-2" d="M244.38,47l.22,2.3a9.45,9.45,0,0,1,6.14-2.75q3.17,0,4,2.62a9,9,0,0,1,6-2.62,4.22,4.22,0,0,1,3.17,1.12A4.46,4.46,0,0,1,265,50.87V62.64h-3.81V52.05a2.9,2.9,0,0,0-.45-1.73,1.85,1.85,0,0,0-1.5-.51,4,4,0,0,0-1.74.38A21.49,21.49,0,0,0,255,51.7V62.64h-3.74V52.05a2.46,2.46,0,0,0-.43-1.74,2,2,0,0,0-1.52-.5,4.08,4.08,0,0,0-1.73.38,20.62,20.62,0,0,0-2.46,1.47v11h-3.87V47Z"/><path class="cls-2" d="M276.28,46.52q4.22,0,6,1.89T284,54.8q0,4.51-1.74,6.38t-6,1.87q-4.26,0-6-1.87T268.5,54.8q0-4.51,1.76-6.4T276.28,46.52Zm0,3.1a3.42,3.42,0,0,0-2.94,1.07q-.77,1.07-.77,4.11t.77,4.08A3.41,3.41,0,0,0,276.28,60a3.37,3.37,0,0,0,2.9-1.07q.78-1.07.78-4.08t-.78-4.11A3.38,3.38,0,0,0,276.28,49.62Zm5.57-8L275,45.24l-1.22-1.73,6-4.7Z"/><path class="cls-2" d="M302.33,47,297,61.72a1.3,1.3,0,0,1-1.31.93h-3.39a1.19,1.19,0,0,1-1.28-.93L285.59,47h4.1L293,57.3q.7,2.46.77,2.72h.42L295,57.3,298.2,47Z"/><path class="cls-2" d="M314.42,56.44H308a3.79,3.79,0,0,0,1.15,2.74,5.19,5.19,0,0,0,3,.69,48.6,48.6,0,0,0,5.63-.38l.35,2.5A15.5,15.5,0,0,1,311.74,63q-4.26,0-6-1.89t-1.79-6.37q0-4.58,1.76-6.42t5.82-1.84q3.74,0,5.44,1.36a4.92,4.92,0,0,1,1.7,4.08Q318.62,56.44,314.42,56.44ZM308,53.72h5.38q1.41,0,1.41-1.82a2.12,2.12,0,0,0-.67-1.79,4.21,4.21,0,0,0-2.43-.51,3.78,3.78,0,0,0-2.83.85A5.18,5.18,0,0,0,308,53.72Z"/><path class="cls-2" d="M326.07,40.24v17.5a1.74,1.74,0,0,0,.43,1.38,2,2,0,0,0,1.42.45h1.34l.45,2.88a7.78,7.78,0,0,1-3.33.54,4.2,4.2,0,0,1-3.09-1.12,4.25,4.25,0,0,1-1.14-3.17V40.24Z"/></g></svg>