<svg xmlns="http://www.w3.org/2000/svg" viewBox="0 0 305.5 108.31"><defs><style>.a{fill:#fff;}.b{fill:#f5775b;}.c{fill:#595959;}.d{fill:#333;}</style></defs><title>0</title><circle class="a" cx="57.21" cy="54.15" r="51"/><path class="b" d="M54,87.31H41.62a2.83,2.83,0,0,1-2.81-2.84V45.54A2,2,0,0,0,35.41,44l-8.16,7.17a2.42,2.42,0,0,1-3.5-.32l-4.29-5.4A2.47,2.47,0,0,1,19.84,42l31.74-25.5A4.15,4.15,0,0,1,54,15.31v72Z"/><path class="c" d="M97.95,50.38,56.3,16.46A4.13,4.13,0,0,0,54,15.31v72h7.56v-21a2.09,2.09,0,0,1,2.08-2.1h11a2.09,2.09,0,0,1,2.08,2.1v21h4.75a2.83,2.83,0,0,0,2.81-2.84V54.09l6.31,5.48a2.6,2.6,0,0,0,3.75-.35l4.08-5.14A2.66,2.66,0,0,0,97.95,50.38Z"/><ellipse class="b" cx="68.83" cy="41.15" rx="5.45" ry="5.5"/><path class="d" d="M129,45.19V27.25q2.21-.23,6.24-.23,3.35,0,4.62,1.2t1.26,4.47q0,3.3-1.21,4.5t-4.35,1.2a34.06,34.06,0,0,1-4-.23v7Zm2.6-9h3.59a3.75,3.75,0,0,0,2.6-.73,3.91,3.91,0,0,0,.7-2.73,3.91,3.91,0,0,0-.7-2.73,3.68,3.68,0,0,0-2.6-.7q-2.6,0-3.59,0Z"/><path class="d" d="M146.75,27V41.52a1.54,1.54,0,0,0,.39,1.21,1.73,1.73,0,0,0,1.25.4h1.17l.29,2a6.34,6.34,0,0,1-2.42.34,3.13,3.13,0,0,1-2.34-.87,3.35,3.35,0,0,1-.86-2.46V27Z"/><path class="d" d="M152.16,34.6l-.23-1.85a36.29,36.29,0,0,1,6.16-.6,5.16,5.16,0,0,1,3.41.94,4.1,4.1,0,0,1,1.09,3.25v8.84h-2l-.29-2a6.88,6.88,0,0,1-5.07,2.24,4.09,4.09,0,0,1-2.82-.94,3.36,3.36,0,0,1-1.05-2.65V40.51a3,3,0,0,1,.94-2.34,3.86,3.86,0,0,1,2.65-.83h5.1v-1a2.11,2.11,0,0,0-.55-1.61,3.18,3.18,0,0,0-2-.44Q156.11,34.29,152.16,34.6Zm1.77,6.24v.68a1.78,1.78,0,0,0,.44,1.35,2,2,0,0,0,1.4.42,6.45,6.45,0,0,0,4.29-1.77V39.23h-4.63a1.52,1.52,0,0,0-1.17.43A1.8,1.8,0,0,0,153.93,40.84Z"/><path class="d" d="M168.51,32.5l.16,2a9.44,9.44,0,0,1,5.62-2.29,3.41,3.41,0,0,1,2.56.9,3.61,3.61,0,0,1,.87,2.61v9.52h-2.52V36.4a2.82,2.82,0,0,0-.35-1.65,1.51,1.51,0,0,0-1.26-.46,4.81,4.81,0,0,0-2,.44,29.24,29.24,0,0,0-2.7,1.46v9h-2.52V32.5Z"/><path class="d" d="M189.29,40.06h-5.69a3.75,3.75,0,0,0,1,2.65,4.46,4.46,0,0,0,2.77.68,41.39,41.39,0,0,0,4.45-.31l.23,1.66a13,13,0,0,1-5,.75q-3.33,0-4.72-1.51t-1.39-5.17q0-3.69,1.37-5.17t4.51-1.48a6.76,6.76,0,0,1,4.24,1.07,3.86,3.86,0,0,1,1.33,3.2Q192.38,40.07,189.29,40.06Zm-5.72-1.95h5q1.25,0,1.25-1.69a2,2,0,0,0-.66-1.65,3.88,3.88,0,0,0-2.25-.48,3.44,3.44,0,0,0-2.6.79A4.78,4.78,0,0,0,183.57,38.11Z"/><path class="d" d="M198.2,32.5V45.32a6.33,6.33,0,0,1-.69,2.91,6.07,6.07,0,0,1-1.88,2.21l-1.4-1.09a6.37,6.37,0,0,0,1.46-4V32.5Zm-1.85-5.41h1.2a.64.64,0,0,1,.73.73v1.46q0,.75-.73.75h-1.2a.67.67,0,0,1-.75-.75V27.82A.66.66,0,0,1,196.36,27.09Z"/><path class="d" d="M202.31,34.6l-.23-1.85a36.29,36.29,0,0,1,6.16-.6,5.16,5.16,0,0,1,3.41.94,4.1,4.1,0,0,1,1.09,3.25v8.84h-2l-.29-2a6.88,6.88,0,0,1-5.07,2.24,4.09,4.09,0,0,1-2.82-.94,3.36,3.36,0,0,1-1.05-2.65V40.51a3,3,0,0,1,.94-2.34,3.86,3.86,0,0,1,2.65-.83h5.1v-1a2.11,2.11,0,0,0-.55-1.61,3.18,3.18,0,0,0-2-.44Q206.26,34.29,202.31,34.6Zm1.77,6.24v.68a1.78,1.78,0,0,0,.44,1.35,2,2,0,0,0,1.4.42,6.45,6.45,0,0,0,4.29-1.77V39.23h-4.63a1.52,1.52,0,0,0-1.17.43A1.8,1.8,0,0,0,204.08,40.84Z"/><path class="d" d="M224.67,32.16l-.29,2.37h-.78A12.23,12.23,0,0,0,219.06,36v9.2h-2.52V32.5h2l.26,1.92a8.75,8.75,0,0,1,5.33-2.26Z"/><path class="d" d="M143.32,59.25h2.83a1,1,0,0,1,1.07,1.07l.73,16.87h-2.6l-.62-15.78h-.52l-3.64,12.77a1.06,1.06,0,0,1-1.12.88h-2.26a1.08,1.08,0,0,1-1.14-.88L132.37,61.4h-.49l-.6,15.78h-2.57l.68-16.87a1,1,0,0,1,1.07-1.07h2.89a1.1,1.1,0,0,1,1.09.88l3,10.5q.26.94.6,2.42h.47q.31-1.38.62-2.44l3-10.48A1.13,1.13,0,0,1,143.32,59.25Z"/><path class="d" d="M159.47,72.06h-5.69a3.75,3.75,0,0,0,1,2.65,4.46,4.46,0,0,0,2.77.68,41.39,41.39,0,0,0,4.45-.31l.23,1.66a13,13,0,0,1-5,.75q-3.33,0-4.72-1.51t-1.39-5.17q0-3.69,1.37-5.17T157,64.16a6.76,6.76,0,0,1,4.24,1.07,3.86,3.86,0,0,1,1.33,3.2Q162.56,72.07,159.47,72.06Zm-5.72-1.95h5q1.25,0,1.25-1.69a2,2,0,0,0-.66-1.65,3.88,3.88,0,0,0-2.25-.48,3.44,3.44,0,0,0-2.6.79A4.78,4.78,0,0,0,153.75,70.11Z"/><path class="d" d="M176.7,64.5V77.19h-2l-.18-1.74a9.09,9.09,0,0,1-5.41,2.08q-3.46,0-3.46-3.51V64.5h2.52v8.79a2.35,2.35,0,0,0,.39,1.63,1.87,1.87,0,0,0,1.43.46,9.12,9.12,0,0,0,4.21-1.69V64.5Z"/><path class="b" d="M192,77.19h-2.6V63.3a8.64,8.64,0,0,1,.13-1.61L185.26,63l-.31-2,4.5-1.82H192Z"/><path class="b" d="M196.47,61.83a4.61,4.61,0,0,1,5.46,0,4.5,4.5,0,0,1,.8,3,4.43,4.43,0,0,1-.8,3,4.67,4.67,0,0,1-5.46,0,4.43,4.43,0,0,1-.8-3A4.49,4.49,0,0,1,196.47,61.83Zm4.3.91a2.5,2.5,0,0,0-3.15,0,3.71,3.71,0,0,0-.42,2.11,3.68,3.68,0,0,0,.42,2.09,2.5,2.5,0,0,0,3.15,0,3.67,3.67,0,0,0,.42-2.09A3.7,3.7,0,0,0,200.77,62.74Z"/><path class="b" d="M214.07,77.19h-2.6V59.25h2.6Z"/><path class="b" d="M220.29,64.5l.13,2a8,8,0,0,1,5.1-2.29,2.94,2.94,0,0,1,3.22,2.21,7.65,7.65,0,0,1,5-2.21,3.38,3.38,0,0,1,2.54.9,3.6,3.6,0,0,1,.87,2.61v9.52h-2.47V68.4a2.6,2.6,0,0,0-.44-1.61,1.75,1.75,0,0,0-1.4-.49,3.62,3.62,0,0,0-1.64.39,18.57,18.57,0,0,0-2.29,1.48v9h-2.42V68.4a2.39,2.39,0,0,0-.44-1.62,1.83,1.83,0,0,0-1.4-.48,3.64,3.64,0,0,0-1.62.39,19,19,0,0,0-2.3,1.46v9h-2.5V64.5Z"/><path class="b" d="M241.74,65.69q1.38-1.53,4.68-1.53t4.68,1.53q1.38,1.53,1.38,5.17T251.1,76q-1.38,1.51-4.68,1.51T241.74,76q-1.38-1.51-1.38-5.15T241.74,65.69Zm7.38,1.56a4.28,4.28,0,0,0-5.41,0,6.36,6.36,0,0,0-.73,3.61,6.29,6.29,0,0,0,.73,3.59,4.28,4.28,0,0,0,5.41,0,6.3,6.3,0,0,0,.73-3.59A6.37,6.37,0,0,0,249.12,67.25Zm1.51-7.33-5.17,3-.86-1.14L249.2,58Z"/><path class="b" d="M267.11,64.5l-4.52,12.06a.9.9,0,0,1-.88.62h-2.26a.83.83,0,0,1-.86-.62L254.06,64.5h2.68l3,8.74.7,2.18h.34l.75-2.18,2.94-8.74Z"/><path class="b" d="M277,72.06h-5.69a3.75,3.75,0,0,0,1,2.65,4.46,4.46,0,0,0,2.77.68,41.39,41.39,0,0,0,4.45-.31l.23,1.66a13,13,0,0,1-5,.75q-3.33,0-4.72-1.51t-1.39-5.17q0-3.69,1.37-5.17t4.51-1.48a6.76,6.76,0,0,1,4.24,1.07,3.86,3.86,0,0,1,1.33,3.2Q280.14,72.07,277,72.06Zm-5.72-1.95h5q1.25,0,1.25-1.69a2,2,0,0,0-.66-1.65,3.88,3.88,0,0,0-2.25-.48,3.44,3.44,0,0,0-2.6.79A4.78,4.78,0,0,0,271.32,70.11Z"/><path class="b" d="M285.86,59V73.52a1.54,1.54,0,0,0,.39,1.21,1.73,1.73,0,0,0,1.25.4h1.17l.29,2a6.34,6.34,0,0,1-2.42.34,3.13,3.13,0,0,1-2.34-.87,3.35,3.35,0,0,1-.86-2.46V59Z"/></svg>