<svg xmlns="http://www.w3.org/2000/svg" viewBox="0 0 94 76"><defs><style>.a{fill:#f5775b;}.b{fill:#595959;}</style></defs><title>marca</title><path class="a" d="M47,74H34.7a2.83,2.83,0,0,1-2.81-2.84V32.23a2,2,0,0,0-3.39-1.56l-8.16,7.17a2.42,2.42,0,0,1-3.5-.32l-4.29-5.4a2.47,2.47,0,0,1,.38-3.46L44.66,3.16A4.15,4.15,0,0,1,47,2V74Z"/><path class="b" d="M91,37.07,49.38,3.15A4.13,4.13,0,0,0,47,2V74H54.6V53a2.09,2.09,0,0,1,2.08-2.1h11A2.09,2.09,0,0,1,69.72,53V74h4.75a2.83,2.83,0,0,0,2.81-2.84V40.79l6.31,5.48a2.6,2.6,0,0,0,3.75-.35l4.08-5.14A2.66,2.66,0,0,0,91,37.07Z"/><ellipse class="a" cx="61.91" cy="27.84" rx="5.45" ry="5.5"/></svg>