<svg xmlns="http://www.w3.org/2000/svg" viewBox="0 0 383 108"><defs><style>.a{fill:#fff;}.b{fill:#f5775b;}.c{fill:#595959;}.d{fill:#333;}</style></defs><title>0</title><circle class="a" cx="57.21" cy="54" r="51"/><path class="b" d="M52.87,83.85H41.66a2.57,2.57,0,0,1-2.56-2.58V45.92A1.86,1.86,0,0,0,36,44.5L28.61,51a2.2,2.2,0,0,1-3.18-.29l-3.9-4.91a2.25,2.25,0,0,1,.35-3.14L50.71,19.51a3.77,3.77,0,0,1,2.16-1.05V83.85Z"/><path class="c" d="M92.82,50.31,55,19.51a3.75,3.75,0,0,0-2.13-1V83.85h6.87V64.79a1.9,1.9,0,0,1,1.89-1.91h10a1.9,1.9,0,0,1,1.89,1.91V83.85h4.31a2.57,2.57,0,0,0,2.56-2.58V53.68l5.73,5a2.36,2.36,0,0,0,3.41-.32l3.7-4.67A2.42,2.42,0,0,0,92.82,50.31Z"/><ellipse class="b" cx="66.37" cy="41.93" rx="4.95" ry="4.99"/><path class="d" d="M146.86,40.56H151a1.42,1.42,0,0,1,1.57,1.57l.9,20.51h-3.94l-.74-18.85h-.61l-3.81,14.69a1.59,1.59,0,0,1-1.66,1.34h-3.07a1.61,1.61,0,0,1-1.7-1.34L134.06,43.8h-.54l-.7,18.85h-3.9l.83-20.51a1.42,1.42,0,0,1,1.57-1.57h4.16a1.55,1.55,0,0,1,1.63,1.34l3.14,12q.06.22.67,3h.48q.35-1.86.67-3l3.14-11.94A1.59,1.59,0,0,1,146.86,40.56Z"/><path class="d" d="M167.47,56.44h-6.4a3.79,3.79,0,0,0,1.15,2.74,5.19,5.19,0,0,0,3,.69,48.6,48.6,0,0,0,5.63-.38l.35,2.5A15.5,15.5,0,0,1,164.78,63q-4.26,0-6-1.89t-1.79-6.37q0-4.58,1.76-6.42t5.82-1.84q3.74,0,5.44,1.36a4.92,4.92,0,0,1,1.7,4.08Q171.66,56.44,167.47,56.44ZM161,53.72h5.38q1.41,0,1.41-1.82a2.12,2.12,0,0,0-.67-1.79,4.21,4.21,0,0,0-2.43-.51,3.78,3.78,0,0,0-2.83.85A5.18,5.18,0,0,0,161,53.72Z"/><path class="d" d="M189.36,47V62.64h-3.07L186,60.53a10.87,10.87,0,0,1-6.56,2.53q-4.35,0-4.35-4.35V47H179V57.56a2.59,2.59,0,0,0,.38,1.73,2,2,0,0,0,1.54.48A10.34,10.34,0,0,0,185.49,58V47Z"/><path class="b" d="M208.56,62.64h-4V46.36a13,13,0,0,1,.16-2.18l-5.18,1.47-.48-2.85,5.5-2.24h4Z"/><path class="b" d="M217.21,42.58a4.58,4.58,0,0,1,3.48,1.1,5.46,5.46,0,0,1,1,3.73,5.42,5.42,0,0,1-1,3.72,4.61,4.61,0,0,1-3.48,1.09,4.67,4.67,0,0,1-3.51-1.09,5.39,5.39,0,0,1-1-3.72,5.42,5.42,0,0,1,1-3.73A4.65,4.65,0,0,1,217.21,42.58Zm0,1.81a2,2,0,0,0-1.72.63,4.45,4.45,0,0,0-.45,2.4,4.41,4.41,0,0,0,.45,2.38,2,2,0,0,0,1.72.63,2,2,0,0,0,1.69-.62,4.33,4.33,0,0,0,.46-2.38,4.37,4.37,0,0,0-.46-2.4A2,2,0,0,0,217.21,44.39Z"/><path class="b" d="M236.07,62.64h-4V40.56h4Z"/><path class="b" d="M243.88,47l.22,2.3a9.45,9.45,0,0,1,6.14-2.75q3.17,0,4,2.62a9,9,0,0,1,6-2.62,4.22,4.22,0,0,1,3.17,1.12,4.46,4.46,0,0,1,1.09,3.23V62.64h-3.81V52.05a2.9,2.9,0,0,0-.45-1.73,1.85,1.85,0,0,0-1.5-.51,4,4,0,0,0-1.74.38,21.49,21.49,0,0,0-2.48,1.5V62.64h-3.74V52.05a2.46,2.46,0,0,0-.43-1.74,2,2,0,0,0-1.52-.5,4.08,4.08,0,0,0-1.73.38,20.62,20.62,0,0,0-2.46,1.47v11h-3.87V47Z"/><path class="b" d="M275.78,46.52q4.22,0,6,1.89t1.74,6.4q0,4.51-1.74,6.38t-6,1.87q-4.26,0-6-1.87T268,54.8q0-4.51,1.76-6.4T275.78,46.52Zm0,3.1a3.42,3.42,0,0,0-2.94,1.07q-.77,1.07-.77,4.11t.77,4.08A3.41,3.41,0,0,0,275.78,60a3.37,3.37,0,0,0,2.9-1.07q.78-1.07.78-4.08t-.78-4.11A3.38,3.38,0,0,0,275.78,49.62Zm5.57-8-6.82,3.58-1.22-1.73,6-4.7Z"/><path class="b" d="M301.83,47l-5.38,14.75a1.3,1.3,0,0,1-1.31.93h-3.39a1.19,1.19,0,0,1-1.28-.93L285.09,47h4.1l3.26,10.34q.7,2.46.77,2.72h.42l.83-2.72L297.7,47Z"/><path class="b" d="M313.92,56.44h-6.4a3.79,3.79,0,0,0,1.15,2.74,5.19,5.19,0,0,0,3,.69,48.6,48.6,0,0,0,5.63-.38l.35,2.5A15.5,15.5,0,0,1,311.24,63q-4.26,0-6-1.89t-1.79-6.37q0-4.58,1.76-6.42T311,46.52q3.74,0,5.44,1.36a4.92,4.92,0,0,1,1.7,4.08Q318.12,56.44,313.92,56.44Zm-6.46-2.72h5.38q1.41,0,1.41-1.82a2.12,2.12,0,0,0-.67-1.79,4.21,4.21,0,0,0-2.43-.51,3.78,3.78,0,0,0-2.83.85A5.18,5.18,0,0,0,307.46,53.72Z"/><path class="b" d="M325.57,40.24v17.5a1.74,1.74,0,0,0,.43,1.38,2,2,0,0,0,1.42.45h1.34l.45,2.88a7.78,7.78,0,0,1-3.33.54,4.2,4.2,0,0,1-3.09-1.12,4.25,4.25,0,0,1-1.14-3.17V40.24Z"/></svg>